<svg xmlns="http://www.w3.org/2000/svg" xmlns:xlink="http://www.w3.org/1999/xlink" version="1.1" id="Layer_1" x="0px" y="0px" width="406" height="111" viewBox="0 0 405.6 110.9" style="enable-background:new 0 0 405.6 110.9;" xml:space="preserve">
<style type="text/css">
	.st0{fill:#007CBA;}
	.st1{fill:#3CB4E5;}
	.st2{fill:#004989;}
</style>
<g>
	<g>
		<path class="st0" d="M124.7,75.6l-10.7-44.8h-3.6v44.8H98.8V32.3h33.5l-3.6,7.2h-27.9l31.8,36.2H124.7z"/>
		<path class="st0" d="M154.8,72.8c-2.2,2-6.2,3.7-12,4.3c-5.6,0.6-12.5-2.2-17.2-8.5c-4.7-6.3-4.2-15.2,1.4-20.6    c4.6-4.4,12.5-7.1,21.7-7.1s14.2,1.5,18.6,1.5,8.3,4.5,11.3c3,3,6.8,4.4,11.4,4.4c2.6,0,5.1-0.5,7.5-1.6,1.5,8.3,4.5,11.3c3,3,6.8,4.4,11.4,4.4c2.6,0,5.1-0.5,7.5-1.6c2.4-1,4.8-2.7,7.2-4.9L216.6,72.8z"/>
		<path class="st0" d="M229.7,75.6h-8.6l23.6-44.8h0.7l22.8,44.8h-8.9l-3.9-7.7h-21.9L229.7,75.6z M236.8,61.7h15.8l-7.8-16.2    L236.8,61.7z"/>
		<path class="st1" d="M285.1,75.6V32.3h8.4v36.6h20.7v6.8H285.1z"/>
		<path class="st1" d="M320.6,75.6V32.3h8.5v43.4H320.6z"/>
		<path class="st1" d="M338.8,75.6V32.3h28.3v6.7h-20v11h17.7v6.6h-17.7v19.1H338.8z"/>
		<path class="st1" d="M373.7,75.6V32.3h28v6.7h-19.5v14.8c0,12.8,6.4,21.9,20.7,21.9c7.2,0,11.9-3,14.5-6.2    c2.9-3.4,4.4-8.1,4.4-14.2V32.3h8.4v43.4H373.7z"/>
	</g>
	<g>
		<path class="st0" d="M127.8,27.5H99V17.3h20.3c3.4,0,6.4,0.8,8.7,2.3l0,0c2.3,1.7,75.6z M236.8,61.7h15.8l-7.8-16.2    L236.8,61.7z"/>
		<path class="st1" d="M285.1,75.6V32.3h8.4v36.6h20.7v6.8H285.1z"/>
		<path class="st1" d="M320.6,75.6V32.3h8.5v43.4H320.6z"/>
		<path class="st1" d="M338.8,75.6V32.3h28.3v6.7h-20v11h17.7v6.6h-17.7v19.1H338.8z"/>
		<path class="st1" d="M373.7,75.6V32.3h28v6.7h-19.5v14.8c0,12.8,6.4,21.9,20.7,21.9c7.2,0,11.9-3,14.5-6.2    c2.9-3.4,4.4-8.1,4.4-14.2V32.3h8.4v43.4H373.7z"/>
	</g>
	<g>
		<path class="st0" d="M127.8,27.5H99V17.3h20.3c3.4,0,6.4,0.8,8.7,2.3l0,0c2.3,1.5,3.5,4,3.5,7.4l0,0c0,3.8-1.3,6.5-3.8,7.8l0,0c-2.4,1.4-5.6,2-9.2,2h-8v8.4h-4.7V17.3h3.6c2.7,0,4.7-0.2,5.5,0.2    c0.8,0.1,1.4,0.4,1.8,0.9c0.3,0.3,0.6,0.7,0.8,1.1c0.2,0.4,0.3,0.9,0.3,1.4v0.4c0,0.5-0.1,0.9-0.3,1.3c-0.2,0.4-0.5,0.7-0.8,0.9    c-0.3,0.2-0.7,0.4-1.2,0.5,5.5,51.8,5.5c20.6,0,38.9,13.5,45,32.8C96.8,38.4,100.6,48.9,91.3,53.1z"/>
	</g>
</g>
<g>
	<path class="st2" d="M96.5,16.1c0,1.3-1,2.3-2.4,2.3c-1.3,0-2.4-1-2.4-2.3c0-1.3,1.1-2.3,2.4-2.3C95.5,13.8,96.5,14.8,96.5,16.1z    M92.4,16.1c0,1,0.8,1.8,1.8,1.8c1,0,1.8-0.8,1.8-1.8c0-1-0.7-1.9-1.8-1.9C93.1,14.3,92.4,15.1,92.4,16.1z M93.8,17.3h0.1c0.2,0,0.4,0,0.6,0   c0.2,0,0.3,0.1,0.4,0.2c0.1,0.1,0.2,0.2,0.3,0.4c0.1,0.2,0.1,0.4,0.1,0.6h-0.6c-0.1-0.1-0.1-0.3-0.2-0.6c0-0.3-0.2-0.4-0.5-0.4h-0.3L93.8,17.3L93.8,17.3z M93.8,16H94   c0.3,0,0.5-0.1,0.5-0.3c0-0.2-0.2-0.4-0.5-0.4c-0.1,0-0.2,0-0.3,0C93.8,15.3,93.8,16,93.8,16z"/>
</g>
</svg>