<?xml version="1.0" encoding="UTF-8"?>
<!-- Generator: Adobe Illustrator 27.2.0, SVG Export Plug-In . SVG Version: 6.00 Build 0)  -->
<svg xmlns="http://www.w3.org/2000/svg" xmlns:xlink="http://www.w3.org/1999/xlink" version="1.1" id="Layer_1" x="0px" y="0px" width="406" height="111" viewBox="0 0 405.6 110.9" style="enable-background:new 0 0 405.6 110.9;" xml:space="preserve">
<style type="text/css">
	.st0{fill:#007CBA;}
	.st1{fill:#3CB4E5;}
	.st2{fill:#0E74B6;}
</style>
<g>
	<g>
		<path class="st0" d="M154.8,72.8c-2.1,1.4-4.5,2.4-6.9,3.1c-2.4,0.7-5,1.1-7.6,1.1c-2.7,0-5.4-0.4-7.9-1.2c-2.5-0.8-4.9-2-7-3.5    c-3-2.2-5.3-4.8-6.9-8c-1.6-3.2-2.4-6.6-2.4-10.4c0-6.6,2.3-12.2,7-16.6s10.5-6.6,17.5-6.6c2.5,0,5,0.3,7.3,1    c2.3,0.7,4.6,1.7,6.8,3.1l-0.9,8.5c-1.9-1.9-3.9-3.2-6-4.2c-2.1-0.9-4.3-1.4-6.7-1.4c-4.8,0-8.7,1.5-11.7,4.5    c-3,3-4.6,6.9-4.6,11.6c0,4.6,1.5,8.3,4.5,11.3c3,3,6.8,4.4,11.4,4.4c2.6,0,5.1-0.5,7.5-1.6c2.4-1,4.8-2.7,7.2-4.9L154.8,72.8z"></path>
		<path class="st0" d="M163.7,75.6V32.3h8.5v43.4H163.7z"></path>
		<path class="st0" d="M216.6,72.8c-2.1,1.4-4.5,2.4-6.9,3.1s-5,1.1-7.6,1.1c-2.7,0-5.4-0.4-7.9-1.2c-2.5-0.8-4.9-2-7-3.5    c-3-2.2-5.3-4.8-6.9-8s-2.4-6.6-2.4-10.4c0-6.6,2.3-12.2,7-16.6s10.5-6.6,17.5-6.6c2.5,0,5,0.3,7.3,1c2.3,0.7,4.6,1.7,6.8,3.1    l-0.9,8.5c-1.9-1.9-3.9-3.2-6-4.2c-2.1-0.9-4.3-1.4-6.7-1.4c-4.8,0-8.7,1.5-11.7,4.5c-3,3-4.6,6.9-4.6,11.6    c0,4.6,1.5,8.3,4.5,11.3s6.8,4.4,11.4,4.4c2.6,0,5.1-0.5,7.5-1.6c2.4-1,4.8-2.7,7.2-4.9L216.6,72.8z"></path>
		<path class="st0" d="M229.7,75.6h-8.6l23.6-44.8h0.7l22.8,44.8h-8.9l-3.9-7.7h-21.9L229.7,75.6z M236.8,61.7h15.8l-7.8-16.2    L236.8,61.7z"></path>
		<path class="st1" d="M285.1,75.6V32.3h8.4v36.6h20.7v6.8H285.1z"></path>
		<path class="st1" d="M320.6,75.6V32.3h8.5v43.4H320.6z"></path>
		<path class="st1" d="M338.8,75.6V32.3h28.3v6.7h-20v11h17.7v6.6h-17.7v19.1H338.8z"></path>
		<path class="st1" d="M373.7,75.6V32.3h28v6.7h-19.8v10.7h17v6.6h-17v12.7H402v6.7H373.7z"></path>
	</g>
	<g>
		<path class="st0" d="M11.8,56.3c11-5,15.9,6,16.3,7.1c5.6,13.2,18.3,22.4,33.1,22.4c19.3,0,36.4-15.7,37.5-35.5    c3.7,29.4-19.1,53.5-47.4,53.5c-20.6,0-38.9-13.5-45-32.8C6.3,71,2.5,60.5,11.8,56.3z"></path>
		<path class="st1" d="M91.3,53.1c-11,5-15.9-6-16.3-7.1c-5.6-13.2-18.3-22.4-33.1-22.4c-19.3,0-36.4,15.7-37.5,35.5    C0.7,29.7,23.5,5.5,51.8,5.5c20.6,0,38.9,13.5,45,32.8C96.8,38.4,100.6,48.9,91.3,53.1z"></path>
	</g>
</g>
<g>
	<path class="st2" d="M96.5,16.1c0,1.3-1,2.3-2.4,2.3c-1.3,0-2.4-1-2.4-2.3c0-1.3,1.1-2.3,2.4-2.3C95.5,13.8,96.5,14.8,96.5,16.1z    M92.4,16.1c0,1,0.8,1.8,1.8,1.8c1,0,1.8-0.8,1.8-1.8c0-1-0.7-1.9-1.8-1.9C93.1,14.3,92.4,15.1,92.4,16.1z M93.8,17.3h-0.5V15   c0.2,0,0.5-0.1,0.9-0.1c0.4,0,0.6,0.1,0.8,0.2c0.1,0.1,0.2,0.3,0.2,0.5c0,0.3-0.2,0.4-0.5,0.5v0c0.2,0.1,0.4,0.3,0.4,0.6   c0.1,0.4,0.1,0.5,0.2,0.6h-0.6c-0.1-0.1-0.1-0.3-0.2-0.6c0-0.3-0.2-0.4-0.5-0.4h-0.3L93.8,17.3L93.8,17.3z M93.8,16H94   c0.3,0,0.5-0.1,0.5-0.3c0-0.2-0.2-0.4-0.5-0.4c-0.1,0-0.2,0-0.3,0C93.8,15.3,93.8,16,93.8,16z"></path>
</g>
</svg>
