<?xml version="1.0" encoding="utf-8"?>
<!-- Generator: Adobe Illustrator 26.5.0, SVG Export Plug-In . SVG Version: 6.00 Build 0)  -->
<svg version="1.1" id="Art" xmlns="http://www.w3.org/2000/svg" xmlns:xlink="http://www.w3.org/1999/xlink" x="0px" y="0px"
	 viewBox="0 0 600 200" style="enable-background:new 0 0 600 200;" xml:space="preserve">
<style type="text/css">
	.st0{fill:#20113E;}
	.st1{fill:#DB65EA;}
	.st2{fill:#C053EF;}
	.st3{fill:#902BF8;}
	.st4{fill:#4F00CA;}
</style>
<g id="Logo_00000022527082148080555850000015932337683257352369_">
	<path id="Descriptor_00000105391009435637250200000000676979679862466228_" class="st0" d="M8,197.2v-18.8H3.6v-6.1H8v-2.9
		c0-2.9,0.7-5.2,2.3-6.8c1.5-1.6,3.6-2.3,6.4-2.3c0.8,0,1.7,0.1,2.5,0.2c0.8,0.1,1.5,0.3,1.9,0.5v5.9c-0.3-0.2-0.7-0.4-1.3-0.5
		s-0.9-0.2-1.5-0.2c-1.1,0-2,0.3-2.6,0.9c-0.6,0.6-0.9,1.5-0.9,2.6v2.4h5.7v6.1h-5.7v18.8H8V197.2z M28.7,167.4
		c-0.7,0-1.4-0.2-2-0.5c-0.6-0.3-1.1-0.8-1.5-1.4c-0.3-0.5-0.5-1.1-0.5-1.9c0-0.7,0.2-1.4,0.5-1.9c0.3-0.5,0.8-1,1.5-1.4
		c0.6-0.3,1.3-0.5,2-0.5s1.4,0.2,2,0.5c0.6,0.3,1,0.8,1.5,1.4c0.3,0.5,0.5,1.1,0.5,1.9c0,0.7-0.2,1.4-0.5,1.9
		c-0.4,0.5-0.8,1-1.5,1.4C30,167.3,29.3,167.4,28.7,167.4z M25.2,197.2v-25.1h6.9v19.2v5.8h-6.9V197.2z M38.5,197.2v-25.1h6.7v3.5
		h0.1c0.6-1,1.7-2,3-2.8c1.4-0.8,2.9-1.3,4.7-1.3c1.9,0,3.4,0.4,4.9,1.3c1.5,0.8,2.6,2.1,3.4,3.8s1.3,3.5,1.3,5.7v14.8h-6.9v-14
		c0-1-0.2-2-0.6-2.7c-0.4-0.7-0.9-1.4-1.7-1.8c-0.7-0.4-1.6-0.6-2.5-0.6c-1,0-2,0.2-2.8,0.7c-0.8,0.5-1.5,1.1-2,2.1
		c-0.5,0.9-0.7,1.9-0.7,3v13.2h-6.9V197.2z M100.3,197.2v-25.1h6.7v3.5h0.1c0.6-1,1.7-2,3-2.8c1.4-0.8,2.9-1.3,4.7-1.3
		c1.9,0,3.4,0.4,4.9,1.3c1.5,0.8,2.6,2.1,3.4,3.8s1.3,3.5,1.3,5.7v14.8h-6.9v-14c0-1-0.2-2-0.6-2.7c-0.4-0.7-0.9-1.4-1.7-1.8
		c-0.7-0.4-1.6-0.6-2.5-0.6c-1,0-2,0.2-2.8,0.7c-0.8,0.5-1.5,1.1-2,2.1c-0.5,0.9-0.7,1.9-0.7,3v13.2h-6.9V197.2z M142.4,197.7
		c-2.5,0-4.8-0.6-6.9-1.8s-3.6-2.7-4.8-4.7s-1.8-4.2-1.8-6.7c0-2.4,0.6-4.7,1.8-6.7c1.1-2,2.8-3.6,4.8-4.8c2-1.1,4.4-1.8,6.9-1.8
		c1.7,0,3.2,0.2,4.7,0.7c1.5,0.5,2.7,1.1,3.8,1.9c1,0.7,1.9,1.6,2.5,2.4l-4.5,4.1c-0.7-0.8-1.6-1.6-2.6-2.1c-1-0.6-2.2-0.8-3.5-0.8
		c-1.3,0-2.4,0.3-3.4,0.8c-1,0.6-1.9,1.5-2.4,2.5c-0.6,1-0.9,2.3-0.9,3.5c0,1.4,0.3,2.5,0.9,3.5c0.6,1,1.4,1.9,2.4,2.5
		c1,0.6,2.2,0.9,3.4,0.9c1.4,0,2.5-0.3,3.5-0.8c1-0.6,2-1.4,2.8-2.2l4.5,4.1c-1.1,1.4-2.6,2.6-4.6,3.6
		C147.1,197.2,144.9,197.7,142.4,197.7z M161.5,167.4c-0.7,0-1.4-0.2-2-0.5c-0.6-0.3-1.1-0.8-1.5-1.4s-0.5-1.1-0.5-1.9
		c0-0.7,0.2-1.4,0.5-1.9c0.3-0.5,0.8-1,1.5-1.4c0.6-0.3,1.3-0.5,2-0.5s1.4,0.2,2,0.5c0.6,0.3,1,0.8,1.5,1.4c0.3,0.5,0.5,1.1,0.5,1.9
		c0,0.7-0.2,1.4-0.5,1.9c-0.4,0.5-0.8,1-1.5,1.4C162.8,167.3,162.1,167.4,161.5,167.4z M158,197.2v-25.1h6.9v19.2v5.8H158V197.2z
		 M202.4,197.2v-36.4h6.9v30.5v5.8H202.4z M79.3,197.6c-1.4,0-2.7-0.3-4.2-0.8c-1.5-0.5-2.7-1.4-3.9-2.4c-1.1-1-2.2-2.4-2.9-4.1
		c-0.7-1.7-1.1-3.5-1.1-5.7s0.4-4.1,1.1-5.7c0.7-1.7,1.7-3,2.8-4.1c1.1-1,2.5-1.9,4-2.4c1.5-0.5,2.9-0.7,4.3-0.7
		c1.7,0,3,0.3,4.3,0.8c1.3,0.5,2.3,1.3,3.1,2.1v-2.5h6.9v25.1h-6.9v-2.9c-0.8,0.9-1.9,1.8-3.1,2.4C82.4,197.3,81,197.6,79.3,197.6z
		 M80.6,191.4c0.9,0,1.8-0.2,2.6-0.5s1.5-0.8,2-1.5c0.5-0.6,1-1.4,1.4-2.2c0.3-0.8,0.5-1.7,0.5-2.6s-0.2-1.8-0.5-2.6
		c-0.3-0.8-0.7-1.6-1.4-2.1c-0.5-0.6-1.3-1-2-1.5c-0.8-0.3-1.7-0.5-2.6-0.5c-0.9,0-1.9,0.2-2.7,0.5s-1.6,0.8-2.1,1.4
		c-0.6,0.6-1,1.4-1.4,2.1c-0.3,0.8-0.5,1.7-0.5,2.7c0,0.9,0.2,1.9,0.5,2.7c0.3,0.8,0.8,1.6,1.4,2.1c0.6,0.6,1.4,1,2.1,1.5
		C78.7,191.3,79.7,191.4,80.6,191.4z M181.7,197.6c-1.4,0-2.7-0.3-4.2-0.8c-1.5-0.5-2.7-1.4-3.9-2.4c-1.1-1-2.2-2.4-2.9-4.1
		c-0.7-1.7-1.1-3.5-1.1-5.7s0.4-4.1,1.1-5.7c0.7-1.7,1.7-3,2.8-4.1c1.1-1,2.5-1.9,4-2.4c1.5-0.5,2.9-0.7,4.3-0.7
		c1.7,0,3,0.3,4.3,0.8c1.3,0.5,2.3,1.3,3.1,2.1v-2.5h6.9v25.1h-6.9v-2.9c-0.8,0.9-1.9,1.8-3.1,2.4
		C184.7,197.3,183.3,197.6,181.7,197.6z M183.1,191.4c0.9,0,1.8-0.2,2.6-0.5s1.5-0.8,2-1.5c0.5-0.6,1-1.4,1.4-2.2
		c0.3-0.8,0.5-1.7,0.5-2.6s-0.2-1.8-0.5-2.6c-0.3-0.8-0.7-1.6-1.4-2.1c-0.5-0.6-1.3-1-2-1.5c-0.8-0.3-1.7-0.5-2.6-0.5
		c-0.9,0-1.9,0.2-2.7,0.5c-0.8,0.3-1.6,0.8-2.1,1.4c-0.6,0.6-1,1.4-1.4,2.1c-0.3,0.8-0.5,1.7-0.5,2.7c0,0.9,0.2,1.9,0.5,2.7
		c0.3,0.8,0.8,1.6,1.4,2.1c0.6,0.6,1.4,1,2.1,1.5C181.2,191.1,182,191.4,183.1,191.4z"/>
	<path id="Wordmark_00000137119843686665999800000015686010426827050911_" class="st0" d="M28.5,142.7c-5.3,0-10.1-1.3-14.5-3.8
		c-4.4-2.5-7.8-5.9-10.3-10.2c-2.5-4.4-3.8-9.1-3.8-14.3c0-5.3,1.3-10.1,3.8-14.5c2.5-4.4,5.9-7.7,10.3-10.2
		c4.4-2.5,9.2-3.8,14.5-3.8c3.6,0,7,0.5,10,1.7c3,1.1,5.6,2.5,7.9,4.1c2.2,1.7,4.1,3.3,5.5,5.1l-8.8,7.7c-1.8-1.9-3.9-3.4-6.3-4.8
		c-2.3-1.4-5.1-2-8.1-2c-3,0-5.7,0.7-8.2,2.2s-4.5,3.4-5.8,5.9c-1.4,2.5-2.1,5.4-2.1,8.5c0,3.1,0.7,5.9,2.1,8.5s3.3,4.6,5.8,6
		c2.5,1.5,5.2,2.2,8.2,2.2c3.1,0,6-0.7,8.5-2.1c2.5-1.4,4.6-3.1,6.4-5.2l8.9,7.7c-2.4,3-5.7,5.6-9.9,7.9
		C38.4,141.7,33.8,142.7,28.5,142.7z M99.5,139c4.4-2.5,7.8-5.9,10.3-10.2c2.5-4.4,3.8-9.1,3.8-14.3c0-5.3-1.3-10.1-3.8-14.5
		c-2.5-4.4-5.9-7.7-10.3-10.2c-4.4-2.5-9.3-3.8-14.6-3.8s-10.1,1.3-14.5,3.8s-7.8,5.9-10.3,10.2c-2.5,4.4-3.8,9.2-3.8,14.5
		c0,5.2,1.3,10,3.8,14.3c2.5,4.4,5.9,7.7,10.3,10.2s9.2,3.8,14.5,3.8S95.1,141.5,99.5,139z M76.8,128.9c-2.5-1.5-4.4-3.4-5.7-6
		c-1.4-2.6-2.1-5.4-2.1-8.5s0.7-6,2.1-8.5c1.4-2.5,3.3-4.5,5.7-5.9c2.5-1.5,5.1-2.2,8.1-2.2c3,0,5.7,0.7,8.2,2.2s4.4,3.4,5.7,5.9
		c1.4,2.5,2.1,5.4,2.1,8.5s-0.7,5.9-2.1,8.5c-1.4,2.6-3.2,4.6-5.7,6c-2.5,1.5-5.2,2.2-8.2,2.2C82,131,79.3,130.3,76.8,128.9z
		 M135.3,141.6v-27c0-3.1,0.6-5.8,1.9-8.3s3-4.4,5.2-5.6s4.6-2,7.3-2c0.8,0,1.7,0.1,2.5,0.2c0.8,0.1,1.6,0.2,2.2,0.4V86h-2.7
		c-2.4,0-4.7,0.4-6.9,1.3c-2.2,0.8-4.1,1.9-5.6,3.1s-2.7,2.6-3.5,4h-0.3v-7.3h-12.5v54.5H135.3z M198.8,139.8c4.1-2,7.2-4.3,9.3-6.8
		l-7.5-7.9c-2,1.8-4.2,3.3-6.7,4.5c-2.5,1.1-5.3,1.8-8.3,1.8c-2.9,0-5.5-0.5-7.9-1.7c-2.4-1.1-4.3-2.7-5.7-4.7
		c-1.5-2-2.4-4.2-2.8-6.6h41.4c0.1-0.6,0.3-1.5,0.4-2.4c0.1-1,0.2-2.1,0.2-3.3c0-5.1-1.1-9.6-3.4-13.6c-2.3-4.1-5.5-7.2-9.6-9.5
		c-4.2-2.3-8.8-3.4-13.9-3.4s-9.8,1.3-14.1,3.8c-4.3,2.5-7.7,5.9-10.2,10.2c-2.5,4.3-3.8,9.1-3.8,14.4c0,5.2,1.3,10,3.8,14.3
		c2.5,4.4,6,7.7,10.4,10.2c4.4,2.5,9.3,3.8,14.7,3.8C190.1,142.7,194.7,141.8,198.8,139.8z M169,109.4c0.7-2.6,1.7-4.8,3-6.6
		c1.4-1.8,3-3.2,5.1-4.3s4.5-1.6,7.1-1.6c2.5,0,4.7,0.5,6.7,1.6c1.9,1,3.5,2.5,4.8,4.3s2.1,4,2.7,6.6H169z M263.8,139.1
		c3.9-2.5,7-5.8,9.3-10.1c2.3-4.3,3.5-9.2,3.5-14.5c0-5.4-1.1-10.3-3.5-14.6c-2.3-4.3-5.4-7.7-9.3-10.1c-3.9-2.5-8-3.6-12.5-3.6
		c-2.9,0-5.5,0.4-8,1.4c-2.5,0.9-4.6,2-6.4,3.3c-1.8,1.3-3.1,2.6-3.9,4.1h-0.2V62.5h-12.6v79.3h12.5v-7.7h0.2c0.9,1.5,2.2,2.8,4,4.2
		c1.8,1.4,3.9,2.4,6.4,3.3c2.5,0.9,5.2,1.4,8,1.4C255.8,142.7,259.9,141.5,263.8,139.1z M240.6,128.8c-2.3-1.5-4.2-3.4-5.6-5.9
		c-1.4-2.5-2.1-5.3-2.1-8.4s0.7-6,2.1-8.5c1.4-2.5,3.2-4.5,5.6-5.9c2.3-1.5,4.9-2.2,7.8-2.2s5.5,0.7,7.8,2.2
		c2.3,1.5,4.2,3.4,5.5,5.9c1.4,2.5,2.1,5.4,2.1,8.5s-0.7,5.9-2.1,8.4c-1.4,2.5-3.2,4.5-5.5,5.9c-2.3,1.5-4.9,2.2-7.8,2.2
		S243,130.2,240.6,128.8z M298.4,141.6v-27c0-3.1,0.6-5.8,1.9-8.3c1.3-2.5,3-4.4,5.2-5.6c2.2-1.4,4.6-2,7.3-2c0.8,0,1.7,0.1,2.5,0.2
		c0.8,0.1,1.6,0.2,2.2,0.4V86h-2.7c-2.4,0-4.7,0.4-6.9,1.3c-2.2,0.8-4.1,1.9-5.6,3.1s-2.7,2.6-3.5,4h-0.3v-7.3h-12.5v54.5H298.4z
		 M335,75.9c1.1-0.7,2.1-1.6,2.8-2.7c0.7-1,1-2.3,1-3.6c0-1.4-0.3-2.6-1-3.6s-1.7-2-2.8-2.6c-1.1-0.6-2.3-0.9-3.6-0.9
		c-1.3,0-2.5,0.3-3.6,0.9c-1.1,0.6-2.1,1.5-2.8,2.6c-0.7,1.1-1,2.3-1,3.6c0,1.4,0.3,2.6,1,3.6c0.7,1.1,1.6,2,2.8,2.7
		c1.1,0.7,2.4,1,3.6,1C332.6,77,333.8,76.6,335,75.9z M337.6,141.6v-6.9V87.2H325v54.5h12.6V141.6z M380.6,141.3
		c2.5-0.9,4.6-2,6.4-3.3c1.8-1.4,3.1-2.7,4-4.2h0.2v7.7h12.5V62.3H391v32.4h-0.2c-0.8-1.5-2.1-2.8-3.9-4.1c-1.8-1.3-3.9-2.4-6.4-3.3
		c-2.5-0.9-5.1-1.4-8-1.4c-4.5,0-8.6,1.3-12.5,3.6c-3.9,2.5-7,5.8-9.3,10.1c-2.3,4.3-3.5,9.2-3.5,14.6c0,5.3,1.1,10.2,3.5,14.5
		c2.3,4.3,5.4,7.7,9.3,10.1c3.9,2.5,8,3.6,12.5,3.6C375.4,142.7,378.1,142.3,380.6,141.3z M367.7,128.8c-2.3-1.5-4.2-3.4-5.5-5.9
		c-1.4-2.5-2.1-5.3-2.1-8.4s0.7-6,2.1-8.5c1.4-2.5,3.2-4.5,5.5-5.9c2.3-1.5,4.9-2.2,7.8-2.2c2.9,0,5.5,0.7,7.8,2.2s4.2,3.4,5.6,5.9
		c1.4,2.5,2.1,5.4,2.1,8.5s-0.7,5.9-2.1,8.4c-1.4,2.5-3.2,4.5-5.6,5.9c-2.3,1.5-4.9,2.2-7.8,2.2C372.6,130.9,370,130.2,367.7,128.8z
		 M519.5,139.8c4.1-2,7.2-4.3,9.3-6.8l-7.5-7.9c-2,1.8-4.2,3.3-6.7,4.5c-2.5,1.1-5.3,1.8-8.3,1.8c-2.9,0-5.5-0.5-7.9-1.7
		s-4.3-2.7-5.7-4.7c-1.5-2-2.4-4.2-2.8-6.6h41.4c0.1-0.6,0.3-1.5,0.4-2.4c0.1-1,0.2-2.1,0.2-3.3c0-5.1-1.1-9.6-3.4-13.6
		c-2.3-4.1-5.5-7.2-9.6-9.5c-4.2-2.3-8.8-3.4-13.9-3.4s-9.8,1.3-14.1,3.8c-4.3,2.5-7.7,5.9-10.2,10.2c-2.5,4.3-3.8,9.1-3.8,14.4
		c0,5.2,1.3,10,3.8,14.3c2.5,4.4,6,7.7,10.4,10.2c4.4,2.5,9.3,3.8,14.7,3.8C510.7,142.7,515.4,141.8,519.5,139.8z M489.6,109.4
		c0.7-2.6,1.7-4.8,3-6.6c1.4-1.8,3-3.2,5.1-4.3c2.1-1,4.5-1.6,7.1-1.6c2.5,0,4.7,0.5,6.7,1.6c1.9,1,3.5,2.5,4.8,4.3
		c1.3,1.8,2.1,4,2.7,6.6H489.6z M453.5,105.9c-1.4-2.5-3.2-4.5-5.6-5.9c-2.3-1.5-4.9-2.2-7.8-2.2c-2.9,0-5.5,0.7-7.8,2.2
		s-4.2,3.4-5.5,5.9c-1.4,2.5-2.1,5.4-2.1,8.5c0,3.1,0.7,5.9,2.1,8.4c1.4,2.5,3.2,4.5,5.5,5.9c2.3,1.5,4.9,2.2,7.8,2.2
		c2.9,0,5.5-0.7,7.8-2.2c2.3-1.5,4.2-3.4,5.6-5.9c1.4-2.5,2.1-5.3,2.1-8.4C455.6,111.2,455,108.4,453.5,105.9z M455.6,133.8h-0.1
		c-0.8,1.5-2.2,2.8-4,4.2c-1.8,1.4-3.9,2.4-6.4,3.3c-2.5,0.9-5.2,1.4-8,1.4c-4.5,0-8.6-1.3-12.5-3.6c-3.9-2.5-7-5.8-9.3-10.1
		c-2.3-4.3-3.5-9.2-3.5-14.5c0-5.4,1.1-10.3,3.5-14.6c2.3-4.3,5.4-7.7,9.3-10.1c3.9-2.5,8-3.6,12.5-3.6c2.9,0,5.5,0.4,8,1.4
		c2.5,0.9,4.6,2,6.4,3.3c1.8,1.3,3.1,2.6,3.9,4.1h0.2v-7.6h12.6v51.9c0,5.7-0.6,10.9-3.1,15.4c-2.5,4.6-5.9,8.1-10.5,10.6
		c-4.5,2.6-9.6,3.9-15.4,3.9c-5.5,0-10.6-1.3-15.3-3.6c-4.7-2.5-8.1-5.3-10.6-8.1l8.9-8.4c1.7,1.8,4,3.8,7,5.4
		c3,1.7,6.5,2.6,9.7,2.6c3.4,0,6.5-0.7,9-2.2c2.5-1.5,4.4-3.5,5.8-6.3c1.4-2.7,2.1-5.8,2.1-9.5V133.8z"/>
	<g id="Symbol_00000068651924747006451520000011134194152478345874_">
		<circle class="st1" cx="594.9" cy="7.3" r="5.1"/>
		<circle class="st2" cx="573.6" cy="15.8" r="6.9"/>
		<circle class="st2" cx="587.8" cy="27.2" r="5.9"/>
		<circle class="st3" cx="545" cy="26.5" r="10.7"/>
		<circle class="st3" cx="578.3" cy="51.4" r="9.1"/>
		<circle class="st4" cx="506.1" cy="41.6" r="15.2"/>
		<circle class="st4" cx="565.6" cy="85.3" r="12.1"/>
	</g>
</g>
</svg>
