<svg version="1.1" xmlns="http://www.w3.org/2000/svg" xmlns:xlink="http://www.w3.org/1999/xlink" x="0px" y="0px" width="222px" height="48px" viewBox="0 0 222 48" style="overflow:visible;enable-background:new 0 0 222 48;" xml:space="preserve"><g id="Logo-icon">
	<path fill="#003B71" d="M3.5,23.5c0.4-1.9,1.2-4,1.8-6.4c0.3-0.9,0.5-1.8,0.9-2.7c0.4-1.1,0.7-2,1.1-2.7c0.3-0.4,0.6-0.8,1-1.2
			c0.5-0.6,1-1.2,1.5-1.7c0.7-0.7,1.2-1,2.2-1.4c0.3-0.1,0.4-0.2,0.7-0.2c0.4,0,0.7,0.2,0.8,0.2c1,0.3,1.8,0.8,2.4,1.5
			c0.5,0.6,1,1.2,1.5,1.8c0.4,0.5,0.7,0.9,1,1.4c0.4,0.7,0.8,1.6,1.1,2.7c0.4,1.1,0.7,2.3,1,3.5c0.4,1.6,0.7,3.2,0.7,4.8
			c0,0.2,0,0.4,0,0.6c0,0.2,0,0.4,0,0.7c-0.1,1.7-0.4,3.4-0.8,4.8c-0.3,0.9-0.7,1.7-1.2,2.5c-0.4,0.6-0.7,1.1-1.2,1.7
			c-0.3,0.4-0.6,0.7-1,1.2c-0.6,0.6-1,1-1.6,1.4c-0.7,0.5-1.6,0.7-2.4,0.7c-0.2,0-0.6,0-0.8-0.2c-0.1-0.1-0.4-0.2-0.6-0.2
			c-0.9-0.2-1.8-0.7-2.4-1.4c-0.4-0.5-0.9-1.2-1.3-1.7c-0.5-0.7-0.8-1.5-1.1-2.6c-0.3-0.9-0.7-2-1-3.4
			C3.3,27.1,3.2,25.2,3.5,23.5z"/>
</g><g id="Logo-text">
	<path fill="#003B71" d="M27.7,30.9c-0.2-1.1-0.5-2.1-0.8-3.1c-0.3-0.9-0.6-1.7-1-2.4c-0.3-0.7-0.7-1.2-1.2-1.7c-0.5-0.5-1.2-1-1.8-1.2
			c-0.3-0.1-0.6-0.2-0.9-0.2s-0.7,0.2-1,0.2c-0.7,0.1-1.4,0.7-1.8,1.3c-0.4,0.4-0.8,0.9-1.2,1.4c-0.4,0.6-0.8,1.3-1.1,2.1
			c-0.4,0.9-0.7,2-1,3.2c-0.2,0.7-0.3,1.2-0.4,1.7l-0.5,2.2c-0.1,0.4-0.2,0.8-0.4,1.2c-0.1,0.3-0.2,0.5-0.3,0.7
			c-0.2,0.4-0.4,0.9-0.6,1.4c-0.2,0.5-0.4,0.8-0.6,1.1c-0.2,0.2-0.4,0.4-0.5,0.6l-0.8,1c-0.6,0.7-1.1,1.2-1.6,1.6
			c-0.5,0.4-1,0.7-1.6,1c-0.6,0.3-1.4,0.4-2.7,0.4h-1.6c0.5-1.7,1.2-4.1,2-6.7c0.6-2,1.4-4.8,2.4-8.2
			c1-3.2,1.9-6.4,2.7-9.6c0.8-3,1.4-5.7,1.9-7.9c0.5-2.1,0.8-3.7,1-4.8l0.7-3.2c0.4-1.8,0.8-3.2,1-4.3
			c0.2-0.8,0.3-1.4,0.5-2c0.2-0.7,0.3-1.1,0.4-1.3l0.3-0.8c0.2-0.4,0.3-0.7,0.4-0.9c0.1-0.3,0.3-0.7,0.4-1
			c0.2-0.4,0.4-0.8,0.6-1.3c0.2-0.4,0.5-1,0.8-1.6c0.4-0.7,0.8-1.3,1.2-1.8c0.3-0.2,0.7-0.4,1.3-0.5c0.2,0,0.4-0.1,0.7-0.1
			c0.2,0,0.4,0,0.6,0c0.4,0,0.7,0.1,1,0.2c0.4,0.2,0.8,0.5,1.2,1c0.3,0.5,0.7,1,0.9,1.6c0.2,0.4,0.4,0.9,0.5,1.4
			l0.2,0.8c0.3,1.1,0.5,2.2,0.7,3.2c0.2,0.9,0.4,1.8,0.6,2.8c0.2,0.8,0.3,1.6,0.4,2.2l0.2,1.4c0.3,1.7,0.6,3.7,0.8,5.6
			c0.2,1.7,0.4,3.1,0.4,4.2l0.2,1.7C34.2,34.8,34.1,34.4,34,34c0-0.2,0-0.4-0.1-0.7c-0.2-1.4-0.4-2.9-0.6-4.2
			c-0.2-1.1-0.5-2.1-0.8-3.2c-0.3-1-0.6-2.1-0.8-3.2c-0.3-1.1-0.6-2.4-0.9-3.7C30.4,37.8,29.7,35.8,29.1,34
			c-0.6-1.6-1-3.2-1.4-4.7l0.2,1.1c0.1,0.2,0.2,0.4,0.3,0.6l0.3,1.7c0,0.2,0.1,0.4,0.1,0.6c0.1,0.4,0.2,0.7,0.3,1.1
			c0.1,0.3,0.2,0.7,0.3,1c0.2,0.6,0.4,1.1,0.6,1.7c0.2,0.5,0.4,1,0.6,1.4c0.1,0.3,0.3,0.7,0.5,0.9c0.4,0.5,0.8,1,1.2,1.5
			c0.4,0.4,0.8,0.7,1.4,1c0.3,0.2,0.6,0.3,0.9,0.4s0.7,0.1,1,0.2c0.4,0,0.7,0,1-0.1c0.4-0.2,0.7-0.4,1-0.6
			c0.3-0.2,0.7-0.6,1.1-1.1c0.3-0.3,0.6-0.8,0.8-1.2c0.2-0.4,0.4-0.8,0.7-1.4c0.2-0.6,0.5-1.3,0.7-1.9c0.2-0.6,0.3-1.1,0.4-1.7
			c0.1-0.5,0.2-0.9,0.3-1.3c0.1-0.4,0.2-0.9,0.2-1.4c0.1-0.6,0.1-1.1,0.2-1.7c0,-0.5,0.1-0.9,0.1-1.4c0-0.4,0-0.7,0.1-1.1
			c0-0.3,0-0.7,0-1c0-0.5,0-0.8,0-1.1s0-0.5,0-0.6C27.8,31.8,27.7,31.3,27.7,30.9z"/>
	<path fill="#003B71" d="M44.4,22.5c-0.2-1-0.4-1.8-0.7-2.5c-0.4-0.8-0.7-1.4-0.8-1.7c0-0.1-0.1-0.1-0.1-0.2c-0.1-0.2-0.2-0.2-0.4-0.2
			c-0.1,0-0.2,0-0.3,0.1c-0.1,0.1-0.2,0.1-0.2,0.2c0,0,-0.1,0.1-0.1,0.1c-0.2,0.3-0.4,0.7-0.5,1.2c-0.1,0.4-0.2,0.8-0.2,1.2
			c0,0.4,0,0.7,0.1,1.1c0,0.2,0.1,0.4,0.1,0.7c0.1,0.4,0.2,0.8,0.4,1.2c0.3,0.7,0.7,1,1.2,1c0.4,0,0.8-0.2,1.1-0.6
			c0.2-0.3,0.4-0.8,0.7-1.4c0.2-0.4,0.4-1,0.5-1.7c0.2-0.8,0.3-1.4,0.3-1.7c0-0.3,-0.1-0.9-0.3-1.7c-0.2-0.7-0.4-1.2-0.6-1.7
			c-0.4-0.7-0.8-0.9-1.4-0.9c-0.5,0-0.9,0.3-1.2,0.7c-0.4,0.6-0.7,1.1-1,1.7c-0.1,0.4-0.2,0.8-0.4,1.2c-0.1,0.4-0.2,0.8-0.2,1.3
			c0,0.2,0,0.4,0.1,0.7c0.1,0.5,0.2,1,0.4,1.5c0.1,0.2,0.2,0.5,0.3,0.7c0.3,0.6,0.6,1,1.1,1.1c0.3,0.1,0.7,0,1.1-0.2
			c0.5-0.3,0.8-0.8,0.9-1.2c0.2-0.5,0.4-1.2,0.6-1.9c0.2-0.7,0.3-1.3,0.3-1.6c0-0.3,0-0.7,0-1c0-0.1,0-0.1,0-0.2
			C44.7,24.5,44.6,23.5,44.4,22.5z"/>
	<path fill="#003B71" d="M31.6,6.3c-2.5-1.2-5.3-1.9-8.2-1.9C13.2,4.3,4.8,12.5,4.6,22.7c-0.1,6,2.6,11.3,6.9,14.9c0.9,0.7,1.9,1.4,2.9,2c0,0,0,0,0.1,09;			M31.6,6.3c-2.5-1.2-5.3-1.9-8.2-1.9C13.2,4.3,4.8,12.5,4.6,22.7c-0.1,6,2.6,11.3,6.9,14.9c0.9,0.7,1.9,1.4,2.9,2c0,0,0,0,0.1,0
				c2.7,1.5,5.7,2.2,8.9,2.2c0.4,0,0.9,0,1.3,0c0-0.3,0-0.7,0-1.1c0-2.3,0.9-4.3,2.2-5.9c1.5-1.9,2.9-4,3.7-6.4
				c0-0.1,0.1-0.3,0.1-0.4c0.5-1.7,0.8-3.6,0.7-5.4c0-0.3,0-0.7,0-1.1c0-0.7-0.1-1.4-0.2-2.1c-0.2-0.9-0.5-1.8-1-2.7
				c-0.4-0.8-0.9-1.4-1.5-1.9c-0.7-0.6-1.4-1.2-2.1-1.8c-0.9-0.7-1.7-1.2-2.7-1.7c-0.8-0.4-1.7-0.7-2.7-1.1
				C35.4,7.4,33.4,6.7,31.6,6.3z"/>
</g><g id="Logo-text2">
	<polygon fill="#003B71" points="127.9,32.8 124.5,13.3 122.5,13.3 122.5,32.8 "/>
	<path fill="#003B71" d="M84.9,32.8l0-19.5H83v19.5h-4.2V19h0.1l-4.8,13.8h-2.4l-4.9-13.8h0.1v-5.7H63.2v19.5h2.2l0-13.8h-0.1l4.8,13.8h2.4
			l4.8-13.8h-0.1l0,13.8H84.9z"/>
	<polygon fill="#003B71" points="137.2,32.8 140.4,13.3 142.5,13.3 145.7,32.8 147.8,32.8 143.4,13.3 139.5,13.3 135,32.8 "/>
	<path fill="#003B71" d="M112.3,32.8V15.2h0.2l0,17.7h2.2V13.3h-4.4v19.5H112.3z M117.6,17.4h-2.9v-2h2.9c0.7,0,1,0.3,1,1
			C118.6,17.1,118.4,17.4,117.6,17.4z M117.1,19.5h-2.4v-2.2h2.4c1,0,1.5,0.4,1.5,1.1C118.7,19,118.2,19.5,117.1,19.5z
			 M120.2,17.9c0-0.8-0.2-1.6-0.7-2.1c0.8-0.7,1.2-1.7,1.2-2.8c0-2-1.6-3.7-3.7-3.7h-3.4h-0.1v0h-5.3v19.5h7.3
			c2.1,0,3.1-0.4,3.8-1.1C119.9,20.9,120.2,19.2,120.2,17.9z"/>
	<path fill="#003B71" d="M90.2,17.5h2.8c0.4,0,0.8-0.2,1-0.4c0.3-0.3,0.4-0.6,0.4-0.9c0-0.3-0.1-0.6-0.3-0.9
			c-0.1-0.2-0.4-0.4-0.8-0.4h-3.1v-1.7h3.3c0.4,0,0.7-0.1,0.9-0.4c0.2-0.2,0.4-0.6,0.4-1.1c0-0.8-0.4-1.4-1.3-1.4h-3.3
			v-2h4c0.7,0,1.4-0.2,1.8-0.6c0.5-0.4,0.9-1,1-1.8c0.1-0.8-0.2-1.6-0.8-2.2c-0.3-0.4-0.7-0.6-1.2-0.7v-0.1
			c0.7-0.2,1.2-0.6,1.4-1.2c0.3-0.7,0.2-1.6-0.4-2.6c-0.2-0.4-0.5-0.7-0.8-1c-0.4-0.2-0.8-0.4-1.3-0.4h-8.2v19.5h8.9
			c0.7,0,1.4-0.2,1.9-0.6c0.6-0.4,0.9-1,1-1.8c0.1-0.8,0-1.7-0.4-2.4C95,17.9,94.4,17.6,93.6,17.5v-0.1
			c0.8-0.2,1.3-0.7,1.5-1.4c0.2-0.6,0.1-1.5-0.4-2.5C94.3,13.1,93.8,13,92.7,13.3H88v19.5h2.2V17.5z"/>
	<path fill="#003B71" d="M100.7,27.1l0.4-2.1h5.4l0.6,2.1h2.4l-3.8-13.8h-3.6l-3.8,13.8h0v5.7h2.2v-5.7H100.7z M101.5,23.2l2.3-8.5l2,8.5H101.5z"/>
	<polygon fill="#003B71" points="154.3,32.8 154.3,20.7 154.1,20.7 149,32.8 150.8,32.8 156.3,20.2 156.3,32.8 158.4,32.8 158.4,13.3 156.2,13.3
			149.7,26.7 149.9,26.7 149.9,13.3 147.7,13.3 147.7,32.8 "/>
	<polygon fill="#003B71" points="222,32.8 222,13.3 217.3,13.3 217.3,24.4 217.5,24.4 222.2,15.3 222.2,13.3 214.1,13.3 214.1,32.8 216.4,32.8
			216.4,21.5 216.2,21.5 211.5,30.7 211.5,32.8 "/>
	<path fill="#003B71" d="M206.9,32.8l0.4-2.1h5.4l0.6,2.1h2.4l-3.8-13.8h-3.6l-3.8,13.8h0v5.7h2.2v-5.7H206.9z M207.8,28.9l2.3-8.5l2,8.5H207.8z"/>
	<polygon fill="#003B71" points="59,19 57.1,26.1 57,26.7 56.9,26.1 54.9,19 53.3,13.3 48,13.3 48,19 48,26.1 48,32.8 49.9,32.8n points="59,19 57.1,26.1 57,26.7 56.9,26.1 54.9,19 53.3,13.3 48,13.3 48,19 48,26.1 48,32.8 49.9,32.8
							49.9,26.1 49.9,19 49.9,17.3 50.3,19 52.3,26.1 54.1,32.8 57.2,32.8 58.9,26.1 60.7,19 61.2,17.3 61.2,19 61.2,26.1 61.2,32.8
							65.4,32.8 65.4,26.1 65.4,19 65.4,13.3 60.4,13.3 59,19 "/>
	<path fill="#003B71" d="M161.6,17.4h2.8c0.4,0,0.8-0.2,1-0.4c0.3-0.3,0.4-0.6,0.4-0.9c0-0.3-0.1-0.6-0.3-0.9
			c-0.1-0.2-0.4-0.4-0.8-0.4h-3.1v-1.7h3.3c0.4,0,0.7-0.1,0.9-0.4c0.2-0.2,0.4-0.6,0.4-1.1c0-0.8-0.4-1.4-1.3-1.4h-3.3
			v-2h4c0.7,0,1.4-0.2,1.8-0.6c0.5-0.4,0.9-1,1-1.8c0.1-0.8-0.2-1.6-0.8-2.2c-0.3-0.4-0.7-0.6-1.2-0.7v-0.1
			c0.7-0.2,1.2-0.6,1.4-1.2c0.3-0.7,0.2-1.6-0.4-2.6c-0.2-0.4-0.5-0.7-0.8-1c-0.4-0.2-0.8-0.4-1.3-0.4h-8.2v19.5h8.9
			c0.7,0,1.4-0.2,1.9-0.6c0.6-0.4,0.9-1,1-1.8c0.1-0.8,0-1.7-0.4-2.4c-0.3-0.7-0.8-1-1.6-1.1v-0.1
			c0.8-0.2,1.3-0.7,1.5-1.4c0.2-0.6,0.1-1.5-0.4-2.5c-0.4-0.6-0.8-1.2-1.7-1.4h-4.7v19.5h2.2V17.5z"/>
	<path fill="#003B71" d="M175.3,17.4h2.9c0.7,0,1,0.3,1,1C179.2,19.1,179,19.4,178.2,19.4h-2.9v-2H175.3z M177.7,21.5h-2.4v-2.2h2.4c1,0,1.5,0.4,1.5,1.1
			C179.3,21,178.8,21.5,177.7,21.5z M180.8,19.9c0-0.8-0.2-1.6-0.7-2.1c0.8-0.7,1.2-1.7,1.2-2.8c0-2-1.6-3.7-3.7-3.7h-3.4h-0.1v0
			h-5.3v19.5h7.3c2.1,0,3.1-0.4,3.8-1.1C180.5,22.9,180.8,21.2,180.8,19.9z"/>
	<path fill="#003B71" d="M188.1,23.1c0,2.2-0.7,4-2,5.2c-1.2,1.2-2.8,2-4.8,2.7l-0.8,0.3l2.7,1.5l0.4-0.2
			c2.1-0.8,3.7-1.9,4.9-3.5c1.2-1.5,1.8-3.6,1.8-6.1c0-2.3-0.6-4.2-1.7-5.7c-1.1-1.4-2.8-2.4-4.9-3
			c-1.4-0.4-2.7-0.5-4-0.4c-2.9,0.1-5,1.2-6.2,3.2l2.3,1.6l0.4-0.4c0.5-0.6,1.1-1,2-1.4c1-0.4,2-0.6,3-0.5
			c1.6,0.1,2.7,0.7,3.3,1.7c0.7,1.1,1,2.6,0.8,4.7c-0.1,0.4-0.2,0.7-0.3,0.9l0.1,0
			c-0.2,0.6-0.6,1.2-1.2,1.8c-0.6,0.6-1.6,0.8-2.4,0.8c-0.4,0-0.8,0-1-0.1c-0.2,0-0.4-0.1-0.6-0.2c-0.2-0.1-0.4-0.3-0.6-0.4
			c-0.2-0.2-0.4-0.4-0.6-0.6l-0.6-0.7c-0.4-0.6-0.7-1.2-0.8-1.8c0-0.5,0.1-1,0.5-1.6c0.2-0.4,0.7-0.7,1.3-0.9
			c0.5-0.1,0.9-0.1,1.4,0.1c0.5,0.2,0.8,0.4,1.1,0.7l0.5,0.4l1.9-2l-0.4-0.4c-0.8-0.8-1.7-1.2-2.8-1.5
			c-1.1-0.3-2.2-0.4-3.3-0.3c-1,0.1-1.7,0.4-2.5,0.8c-0.8,0.4-1.5,1.2-1.9,2.1C188.5,20.6,188.1,21.7,188.1,23.1z"/>
	<path fill="#003B71" d="M200.1,23.1c0,2.2-0.7,4-2,5.2c-1.2,1.2-2.8,2-4.8,2.7l-0.8,0.3l2.7,1.5l0.4-0.2
			c2.1-0.8,3.7-1.9,4.9-3.5c1.2-1.5,1.8-3.6,1.8-6.1c0-2.3-0.6-4.2-1.7-5.7c-1.1-1.4-2.8-2.4-4.9-3
			c-1.4-0.4-2.7-0.5-4-0.4c-2.9,0.1-5,1.2-6.2,3.2l2.3,1.6l0.4-0.4c0.5-0.6,1.1-1,2-1.4c1-0.4,2-0.6,3-0.5
			c1.6,0.1,2.7,0.7,3.3,1.7c0.7,1.1,1,2.6,0.8,4.7c-0.1,0.4-0.2,0.7-0.3,0.9l0.1,0
			c-0.2,0.6-0.6,1.2-1.2,1.8c-0.6,0.6-1.6,0.8-2.4,0.8c-0.4,0-0.8,0-1-0.1c-0.2,0-0.4-0.1-0.6-0.2c-0.2-0.1-0.4-0.3-0.6-0.4
			c-0.2-0.2-0.4-0.4-0.6-0.6l-0.6-0.7c-0.4-0.6-0.7-1.2-0.8-1.8c0-0.5,0.1-1,0.5-1.6c0.2-0.4,0.7-0.7,1.3-0.9
			c0.5-0.1,0.9-0.1,1.4,0.1c0.5,0.2,0.8,0.4,1.1,0.7l0.5,0.4l1.9-2l-0.4-0.4c-0.8-0.8-1.7-1.2-2.8-1.5
			c-1.1-0.3-2.2-0.4-3.3-0.3c-1,0.1-1.7,0.4-2.5,0.8c-0.8,0.4-1.5,1.2-1.9,2.1C200.5,20.6,200.1,21.7,200.1,23.1z"/>
</g></svg>