<?xml version="1.0" encoding="UTF-8"?>
<svg xmlns="http://www.w3.org/2000/svg" width="367" height="118" viewBox="0 0 367 118" fill="none">
  <g clip-path="url(#clip0_16728_1660)">
    <path d="M129.364 24.6169H126.912V35.3712H129.364V24.6169Z" fill="black"></path>
    <path fill-rule="evenodd" clip-rule="evenodd" d="M144.402 35.3712V24.6169H141.966V29.594C141.966 30.0181 141.966 30.8022 141.998 31.3624H141.966C141.668 30.8983 141.361 30.4902 141.023 30.0501L136.773 24.6169H134.322V35.3712H136.757V29.9061C136.757 29.442 136.757 28.7218 136.71 28.3617H136.734C137.095 28.8338 137.394 29.2579 137.731 29.706L142.123 35.3632H144.394L144.402 35.3712Z" fill="black"></path>
    <path fill-rule="evenodd" clip-rule="evenodd" d="M156.384 32.2586C156.384 28.8419 151.882 29.0499 151.882 27.3295C151.882 26.8094 152.416 26.4734 153.146 26.4734C154.011 26.4734 154.734 26.7614 155.716 27.2735L155.755 25.1851C155.103 24.809 154.121 24.5129 152.997 24.5129C150.577 24.5129 149.281 26.0253 149.281 27.6656C149.281 28.5058 149.54 29.1139 149.941 29.578C151.206 31.0823 153.791 31.2904 153.791 32.5866C153.791 33.3228 152.981 33.5789 152.274 33.5789C151.347 33.5789 150.538 33.2028 149.839 32.7227L148.912 34.4991C149.713 35.0352 150.829 35.5553 152.4 35.5553C154.616 35.5553 156.391 34.315 156.391 32.2746L156.384 32.2586Z" fill="black"></path>
    <path fill-rule="evenodd" clip-rule="evenodd" d="M170.267 31.0265V24.6091H167.823V31.2345C167.823 31.9067 167.658 32.4348 167.328 32.8109C166.943 33.227 166.346 33.467 165.537 33.467C164.845 33.467 164.209 33.243 163.824 32.7949C163.518 32.4348 163.274 31.9467 163.274 31.1465V24.6171H160.838V31.3706C160.838 32.7148 161.208 33.7311 161.883 34.4032C162.685 35.2034 163.903 35.5394 165.505 35.5394C167.108 35.5394 168.357 35.0993 169.175 34.2512C169.897 33.515 170.275 32.4268 170.275 31.0345L170.267 31.0265Z" fill="black"></path>
    <path fill-rule="evenodd" clip-rule="evenodd" d="M183.686 35.3712C182.138 32.6346 181.156 30.8663 180.583 30.5302V30.5062C181.51 30.0581 182.461 29.1219 182.461 27.7536C182.461 26.0733 181.431 24.6169 178.532 24.6169H175.224V35.3712H177.676V31.3464H178.414C178.768 31.4904 179.334 32.5706 180.921 35.3712H183.686ZM180.056 28.0337C180.056 28.9058 179.428 29.562 178.579 29.562H177.684V26.6574H178.595C179.475 26.6574 180.056 27.2415 180.056 28.0337Z" fill="black"></path>
    <path d="M190.27 24.6169H187.819V35.3712H190.27V24.6169Z" fill="black"></path>
    <path fill-rule="evenodd" clip-rule="evenodd" d="M205.316 35.3712V24.6169H202.881V29.594C202.881 30.0181 202.881 30.8022 202.904 31.3624H202.881C202.574 30.8983 202.268 30.4902 201.93 30.0501L197.679 24.6169H195.228V35.3712H197.664V29.9061C197.664 29.442 197.664 28.7218 197.617 28.3617H197.648C198.002 28.8338 198.308 29.2579 198.646 29.706L203.038 35.3632H205.316V35.3712Z" fill="black"></path>
    <path fill-rule="evenodd" clip-rule="evenodd" d="M219.765 34.4272V29.7862H217.314V33.355C216.945 33.491 216.395 33.563 215.884 33.563C213.786 33.563 212.545 31.8187 212.545 29.9223C212.545 28.1939 213.495 26.4815 216.347 26.4815C217.353 26.4815 218.249 26.7376 219.16 27.2177L219.207 25.0172C218.28 24.7212 217.377 24.5051 215.97 24.5051C212.301 24.5051 209.865 27.0017 209.865 30.0823C209.865 33.163 211.822 35.5395 215.232 35.5395C217.023 35.5395 218.516 35.0994 219.757 34.4352L219.765 34.4272Z" fill="black"></path>
    <path fill-rule="evenodd" clip-rule="evenodd" d="M237.522 35.3712V33.3548H233.884V24.6169H231.448V35.3712H237.522Z" fill="black"></path>
    <path d="M244.153 24.6169H241.702V35.3712H244.153V24.6169Z" fill="black"></path>
    <path fill-rule="evenodd" clip-rule="evenodd" d="M259.23 24.625H256.724L254.485 30.0581C254.178 30.8103 253.943 31.4664 253.746 32.0506H253.715C253.503 31.4344 253.267 30.7303 252.976 29.9861L250.957 24.625H248.262L252.638 35.4513H254.516L259.23 24.625Z" fill="black"></path>
    <path fill-rule="evenodd" clip-rule="evenodd" d="M269.649 35.3712V33.3708H265.791V30.8983H269.107V28.8738H265.791V26.6254H269.091L269.68 24.6169H263.34V35.3712H269.649Z" fill="black"></path>
    <path fill-rule="evenodd" clip-rule="evenodd" d="M281.261 32.2586C281.261 28.8419 276.759 29.0499 276.759 27.3295C276.759 26.8094 277.293 26.4734 278.032 26.4734C278.896 26.4734 279.619 26.7614 280.593 27.2735L280.64 25.1851C279.98 24.809 279.006 24.5129 277.883 24.5129C275.463 24.5129 274.166 26.0253 274.166 27.6656C274.166 28.5058 274.418 29.1139 274.826 29.578C276.083 31.0823 278.668 31.2904 278.668 32.5866C278.668 33.3228 277.867 33.5789 277.144 33.5789C276.217 33.5789 275.423 33.2028 274.708 32.7227L273.781 34.4991C274.583 35.0352 275.698 35.5553 277.278 35.5553C279.485 35.5553 281.269 34.315 281.269 32.2746L281.261 32.2586Z" fill="black"></path>
    <path fill-rule="evenodd" clip-rule="evenodd" d="M134.392 61.3049C134.392 57.8881 129.89 58.0962 129.89 56.3758C129.89 55.8557 130.417 55.5116 131.155 55.5116C132.019 55.5116 132.734 55.7997 133.716 56.3038L133.764 54.2154C133.111 53.8393 132.129 53.5432 131.006 53.5432C128.586 53.5432 127.289 55.0555 127.289 56.6959C127.289 57.5361 127.549 58.1362 127.942 58.6083C129.214 60.1126 131.791 60.3206 131.791 61.6169C131.791 62.3531 130.99 62.6091 130.275 62.6091C129.34 62.6091 128.539 62.233 127.839 61.7449L126.912 63.5293C127.714 64.0574 128.837 64.5855 130.401 64.5855C132.616 64.5855 134.392 63.3533 134.392 61.3049Z" fill="black"></path>
    <path fill-rule="evenodd" clip-rule="evenodd" d="M148.275 60.0804V53.6631H145.824V60.2885C145.824 60.9606 145.659 61.4807 145.329 61.8648C144.944 62.2809 144.355 62.521 143.537 62.521C142.854 62.521 142.21 62.3049 141.825 61.8488C141.526 61.4887 141.283 61.0006 141.283 60.2005V53.6711H138.847V60.4245C138.847 61.7688 139.216 62.785 139.892 63.4572C140.693 64.2573 141.911 64.5934 143.514 64.5934C145.117 64.5934 146.366 64.1613 147.183 63.3051C147.906 62.569 148.291 61.4807 148.291 60.0884L148.275 60.0804Z" fill="black"></path>
    <path fill-rule="evenodd" clip-rule="evenodd" d="M160.265 57.1918C160.265 54.8553 158.662 53.6631 156.305 53.6631H153.249V64.4174H155.7V60.7766H155.967C159.251 60.7766 160.265 58.4721 160.265 57.1918ZM157.837 57.3039C157.837 58.3281 157.264 58.9202 156.046 58.9202H155.692V55.7035H156.046C157.24 55.7035 157.837 56.4397 157.837 57.3039Z" fill="black"></path>
    <path fill-rule="evenodd" clip-rule="evenodd" d="M171.728 57.1918C171.728 54.8553 170.125 53.6631 167.776 53.6631H164.712V64.4174H167.163V60.7766H167.43C170.707 60.7766 171.728 58.4721 171.728 57.1918ZM169.308 57.3039C169.308 58.3281 168.727 58.9202 167.517 58.9202H167.163V55.7035H167.517C168.719 55.7035 169.308 56.4397 169.308 57.3039Z" fill="black"></path>
    <path fill-rule="evenodd" clip-rule="evenodd" d="M186.774 59.0244C186.774 57.5121 186.342 56.1758 185.446 55.1996C184.488 54.1514 183.05 53.5513 181.282 53.5513C179.632 53.5513 178.265 54.1514 177.307 55.1516C176.317 56.1758 175.767 57.6001 175.767 59.1765C175.767 60.7528 176.364 62.2811 177.448 63.2733C178.399 64.1295 179.679 64.5776 181.282 64.5776C182.885 64.5776 184.338 63.9615 185.336 62.9293C186.295 61.945 186.774 60.5287 186.774 59.0084V59.0244ZM184.181 59.0884C184.181 61.3529 182.901 62.6332 181.266 62.6332C179.632 62.6332 178.312 61.3529 178.312 59.0884C178.312 56.824 179.593 55.5437 181.266 55.5437C182.94 55.5437 184.181 56.816 184.181 59.0884Z" fill="black"></path>
    <path fill-rule="evenodd" clip-rule="evenodd" d="M199.801 64.4174C198.245 61.6808 197.271 59.9124 196.697 59.5763V59.5523C197.624 59.1042 198.567 58.168 198.567 56.7997C198.567 55.1194 197.546 53.6631 194.639 53.6631H191.339V64.4174H193.79V60.3925H194.521C194.874 60.5365 195.432 61.6168 197.027 64.4174H199.793H199.801ZM196.163 57.0798C196.163 57.952 195.534 58.6081 194.694 58.6081H193.798V55.7035H194.709C195.582 55.7035 196.163 56.2876 196.163 57.0798Z" fill="black"></path>
    <path fill-rule="evenodd" clip-rule="evenodd" d="M211.358 53.6631H202.488V55.6715H205.583V64.4174H208.066V55.6715H210.855L211.358 53.6631Z" fill="black"></path>
    <path d="M217.895 53.6631H215.452V64.4174H217.895V53.6631Z" fill="black"></path>
    <path fill-rule="evenodd" clip-rule="evenodd" d="M232.941 64.4174V53.6631H230.498V58.6401C230.498 59.0642 230.498 59.8484 230.537 60.4085H230.498C230.199 59.9444 229.893 59.5363 229.563 59.0962L225.312 53.6631H222.861V64.4174H225.296V58.9602C225.296 58.4961 225.296 57.776 225.257 57.4159H225.281C225.634 57.888 225.941 58.3121 226.279 58.7602L230.663 64.4174H232.941Z" fill="black"></path>
    <path fill-rule="evenodd" clip-rule="evenodd" d="M247.382 63.4812V58.8402H244.939V62.409C244.569 62.545 244.027 62.617 243.509 62.617C241.411 62.617 240.177 60.8806 240.177 58.9762C240.177 57.2479 241.12 55.5355 243.972 55.5355C244.986 55.5355 245.882 55.7916 246.793 56.2717L246.84 54.0712C245.913 53.7751 245.009 53.5591 243.603 53.5591C239.934 53.5591 237.498 56.0556 237.498 59.1363C237.498 62.2169 239.455 64.5934 242.865 64.5934C244.656 64.5934 246.149 64.1613 247.382 63.4892V63.4812Z" fill="black"></path>
    <path fill-rule="evenodd" clip-rule="evenodd" d="M272.815 53.6631H270.34L268.643 59.5043C268.478 60.0644 268.391 60.5205 268.274 61.0486H268.226C268.101 60.5205 267.92 60.0324 267.731 59.4723L265.767 53.6631H263.347L264.031 55.5915L262.703 59.6724C262.554 60.1125 262.412 60.5845 262.302 61.0647H262.255C262.122 60.5525 262.027 60.1285 261.886 59.6724L260.016 53.6631H257.274L261.116 64.5054H263.151L264.652 60.2645C264.801 59.8404 264.997 59.3123 265.084 58.8402H265.139C265.233 59.2803 265.422 59.8084 265.602 60.2965L267.119 64.5134H269.232L272.823 53.6711L272.815 53.6631Z" fill="black"></path>
    <path fill-rule="evenodd" clip-rule="evenodd" d="M287.122 59.0244C287.122 57.5121 286.69 56.1758 285.794 55.1996C284.828 54.1514 283.39 53.5513 281.63 53.5513C279.98 53.5513 278.621 54.1514 277.663 55.1516C276.665 56.1758 276.115 57.6001 276.115 59.1765C276.115 60.7528 276.712 62.2811 277.804 63.2733C278.747 64.1295 280.027 64.5776 281.63 64.5776C283.312 64.5776 284.694 63.9615 285.684 62.9293C286.635 61.945 287.122 60.5287 287.122 59.0084V59.0244ZM284.529 59.0884C284.529 61.3529 283.249 62.6332 281.615 62.6332C279.98 62.6332 278.66 61.3529 278.66 59.0884C278.66 56.824 279.949 55.5437 281.615 55.5437C283.28 55.5437 284.529 56.816 284.529 59.0884Z" fill="black"></path>
    <path fill-rule="evenodd" clip-rule="evenodd" d="M302.75 64.4174V53.6631H300.518L298.153 57.3279C297.839 57.84 297.58 58.2961 297.383 58.6881H297.352C297.116 58.2641 296.857 57.88 296.535 57.4159L293.895 53.6631H291.679V64.4174H294.115V58.8562C294.115 58.5601 294.115 58.144 294.099 57.776H294.131C294.351 58.184 294.61 58.5121 294.83 58.8242L296.802 61.5688H297.878L299.607 58.9202C299.788 58.6401 300.22 58.008 300.314 57.776H300.33C300.314 58.104 300.314 58.5441 300.314 58.9442V64.4254H302.75V64.4174Z" fill="black"></path>
    <path fill-rule="evenodd" clip-rule="evenodd" d="M314.024 64.4174V62.4169H310.167V59.9524H313.482V57.92H310.167V55.6715H313.467L314.056 53.6631H307.715V64.4174H314.024Z" fill="black"></path>
    <path fill-rule="evenodd" clip-rule="evenodd" d="M328.701 64.4174V53.6631H326.257V58.6401C326.257 59.0642 326.257 59.8484 326.289 60.4085H326.257C325.959 59.9444 325.652 59.5363 325.315 59.0962L321.08 53.6631H318.628V64.4174H321.056V58.9602C321.056 58.4961 321.056 57.776 321.009 57.4159H321.04C321.394 57.888 321.7 58.3121 322.03 58.7602L326.422 64.4174H328.701Z" fill="black"></path>
    <path fill-rule="evenodd" clip-rule="evenodd" d="M134.4 89.8227C134.4 86.406 129.906 86.6141 129.906 84.8937C129.906 84.3736 130.432 84.0375 131.171 84.0375C132.035 84.0375 132.758 84.3256 133.724 84.8297L133.771 82.7412C133.119 82.3652 132.145 82.0691 131.014 82.0691C128.594 82.0691 127.297 83.5814 127.297 85.2138C127.297 86.0539 127.557 86.6621 127.949 87.1262C129.222 88.6305 131.799 88.8385 131.799 90.1348C131.799 90.871 130.998 91.127 130.283 91.127C129.356 91.127 128.554 90.7509 127.847 90.2628L126.92 92.0472C127.722 92.5753 128.845 93.1034 130.416 93.1034C132.624 93.1034 134.4 91.8712 134.4 89.8227Z" fill="black"></path>
    <path fill-rule="evenodd" clip-rule="evenodd" d="M145.156 92.9435V90.9431H141.298V88.4705H144.614V86.4461H141.298V84.1976H144.598L145.195 82.1892H138.839V92.9435H145.156Z" fill="black"></path>
    <path fill-rule="evenodd" clip-rule="evenodd" d="M158.214 92.9435C156.659 90.2069 155.677 88.4385 155.103 88.1025V88.0785C156.038 87.6304 156.981 86.6942 156.981 85.3259C156.981 83.6455 155.959 82.1892 153.052 82.1892H149.752V92.9435H152.204V88.9186H152.942C153.296 89.0627 153.854 90.1429 155.449 92.9435H158.222H158.214ZM154.569 85.6059C154.569 86.4781 153.948 87.1343 153.099 87.1343H152.196V84.2296H153.107C153.995 84.2296 154.561 84.8138 154.561 85.6059H154.569Z" fill="black"></path>
    <path fill-rule="evenodd" clip-rule="evenodd" d="M171.493 82.1973H168.994L166.747 87.6304C166.448 88.3826 166.205 89.0387 166.016 89.6228H165.985C165.781 89.0067 165.537 88.3026 165.254 87.5584L163.235 82.1973H160.54L164.908 93.0236H166.786L171.5 82.1973H171.493Z" fill="black"></path>
    <path d="M178.061 82.1892H175.609V92.9435H178.061V82.1892Z" fill="black"></path>
    <path fill-rule="evenodd" clip-rule="evenodd" d="M193.099 92.9435V82.1892H190.656V87.1663C190.656 87.5904 190.656 88.3745 190.687 88.9346H190.656C190.357 88.4705 190.051 88.0625 189.713 87.6224L185.462 82.1892H183.011V92.9435H185.446V87.4863C185.446 87.0302 185.446 86.3021 185.399 85.942H185.431C185.792 86.4141 186.091 86.8382 186.428 87.2863L190.813 92.9435H193.091H193.099Z" fill="black"></path>
    <path fill-rule="evenodd" clip-rule="evenodd" d="M207.548 91.9992V87.3582H205.096V90.927C204.727 91.063 204.185 91.135 203.674 91.135C201.569 91.135 200.335 89.3906 200.335 87.4942C200.335 85.7659 201.286 84.0455 204.13 84.0455C205.144 84.0455 206.039 84.3016 206.959 84.7817L207.006 82.5812C206.079 82.2851 205.175 82.0691 203.769 82.0691C200.099 82.0691 197.664 84.5656 197.664 87.6463C197.664 90.7269 199.62 93.1034 203.03 93.1034C204.821 93.1034 206.314 92.6713 207.548 91.9992Z" fill="black"></path>
    <path fill-rule="evenodd" clip-rule="evenodd" d="M228.054 91.9512L227.394 90.2388C226.554 90.7109 225.736 90.967 224.747 90.967C222.759 90.967 221.509 89.4146 221.509 87.4942C221.509 85.7819 222.476 84.0615 224.982 84.0615C225.705 84.0615 226.632 84.2135 227.591 84.7817L227.646 82.6292C226.907 82.2531 225.901 82.0691 224.872 82.0691C221.14 82.0691 218.838 84.5816 218.838 87.6623C218.838 90.7429 220.795 93.1034 224.314 93.1034C225.571 93.1034 226.766 92.7754 228.062 91.9512H228.054Z" fill="black"></path>
    <path fill-rule="evenodd" clip-rule="evenodd" d="M243.061 87.5423C243.061 86.03 242.629 84.7017 241.741 83.7255C240.775 82.6773 239.337 82.0771 237.569 82.0771C235.919 82.0771 234.552 82.6773 233.601 83.6775C232.603 84.7017 232.061 86.126 232.061 87.7103C232.061 89.2947 232.658 90.815 233.751 91.8072C234.693 92.6634 235.974 93.1115 237.577 93.1115C239.18 93.1115 240.641 92.4953 241.623 91.4631C242.59 90.4869 243.069 89.0626 243.069 87.5423H243.061ZM240.476 87.6063C240.476 89.8708 239.195 91.1511 237.561 91.1511C235.927 91.1511 234.615 89.8708 234.615 87.6063C234.615 85.3418 235.895 84.0616 237.561 84.0616C239.227 84.0616 240.476 85.3338 240.476 87.6063Z" fill="black"></path>
    <path fill-rule="evenodd" clip-rule="evenodd" d="M258.696 92.9435V82.1892H256.472L254.1 85.854C253.785 86.3661 253.526 86.8142 253.338 87.2143H253.306C253.07 86.7902 252.819 86.3981 252.489 85.942L249.849 82.1892H247.641V92.9435H250.077V87.3823C250.077 87.0862 250.077 86.6702 250.061 86.3021H250.093C250.313 86.7102 250.58 87.0382 250.8 87.3503L252.772 90.0949H253.833L255.569 87.4463C255.75 87.1663 256.182 86.5341 256.276 86.3021C256.276 86.6301 256.276 87.0702 256.276 87.4703V92.9435H258.704H258.696Z" fill="black"></path>
    <path fill-rule="evenodd" clip-rule="evenodd" d="M274.732 92.9435V82.1892H272.508L270.144 85.854C269.821 86.3661 269.562 86.8142 269.374 87.2143H269.342C269.106 86.7902 268.839 86.3981 268.517 85.942L265.877 82.1892H263.662V92.9435H266.097V87.3823C266.097 87.0862 266.097 86.6702 266.082 86.3021H266.113C266.333 86.7102 266.592 87.0382 266.812 87.3503L268.784 90.0949H269.853L271.581 87.4463C271.762 87.1663 272.194 86.5341 272.288 86.3021H272.296C272.289 86.6301 272.288 87.0702 272.288 87.4703V92.9435H274.716H274.732Z" fill="black"></path>
    <path fill-rule="evenodd" clip-rule="evenodd" d="M289.134 88.5985V82.1812H286.682V88.8066C286.682 89.4787 286.517 89.9988 286.187 90.3829C285.802 90.799 285.213 91.039 284.396 91.039C283.712 91.039 283.068 90.815 282.683 90.3669C282.377 90.0068 282.141 89.5187 282.141 88.7185V82.1892H279.705V88.9426C279.705 90.2869 280.075 91.3031 280.742 91.9752C281.544 92.7754 282.762 93.1115 284.364 93.1115C285.967 93.1115 287.217 92.6794 288.034 91.8232C288.749 91.087 289.134 89.9988 289.134 88.6065V88.5985Z" fill="black"></path>
    <path fill-rule="evenodd" clip-rule="evenodd" d="M304.172 92.9435V82.1892H301.736V87.1663C301.736 87.5904 301.736 88.3745 301.767 88.9346H301.736C301.43 88.4705 301.131 88.0625 300.785 87.6224L296.543 82.1892H294.091V92.9435H296.527V87.4863C296.527 87.0302 296.527 86.3021 296.48 85.942H296.511C296.865 86.4141 297.171 86.8382 297.501 87.2863L301.893 92.9435H304.172Z" fill="black"></path>
    <path d="M311.581 82.1892H309.137V92.9435H311.581V82.1892Z" fill="black"></path>
    <path fill-rule="evenodd" clip-rule="evenodd" d="M324.71 82.1892H315.832V84.1976H318.919V92.9435H321.402V84.1976H324.191L324.71 82.1892Z" fill="black"></path>
    <path d="M331.247 82.1892H328.787V92.9435H331.247V82.1892Z" fill="black"></path>
    <path fill-rule="evenodd" clip-rule="evenodd" d="M342.513 92.9435V90.9431H338.656V88.4705H341.971V86.4461H338.656V84.1976H341.956L342.545 82.1892H336.204V92.9435H342.513Z" fill="black"></path>
    <path fill-rule="evenodd" clip-rule="evenodd" d="M354.126 89.8227C354.126 86.406 349.624 86.6141 349.624 84.8937C349.624 84.3736 350.158 84.0375 350.889 84.0375C351.761 84.0375 352.476 84.3256 353.45 84.8297L353.497 82.7412C352.837 82.3652 351.863 82.0691 350.74 82.0691C348.328 82.0691 347.031 83.5814 347.031 85.2138C347.031 86.0539 347.283 86.6621 347.683 87.1262C348.948 88.6305 351.533 88.8385 351.533 90.1348C351.533 90.871 350.732 91.127 350.009 91.127C349.082 91.127 348.28 90.7509 347.573 90.2628L346.646 92.0472C347.448 92.5753 348.563 93.1034 350.135 93.1034C352.342 93.1034 354.126 91.8712 354.126 89.8227Z" fill="black"></path>
    <path fill-rule="evenodd" clip-rule="evenodd" d="M359.084 82.8853C359.084 81.0449 356.656 81.149 356.656 80.2288C356.656 79.9487 356.939 79.7647 357.339 79.7647C357.803 79.7647 358.196 79.9247 358.722 80.1968L358.754 79.0685C358.4 78.8685 357.866 78.7004 357.261 78.7004C355.957 78.7004 355.257 79.5166 355.257 80.3968C355.257 80.8529 355.399 81.181 355.611 81.437C356.294 82.2532 357.685 82.3572 357.685 83.0614C357.685 83.4534 357.253 83.5975 356.868 83.5975C356.365 83.5975 355.933 83.3894 355.556 83.1334L355.053 84.0856C355.493 84.3736 356.09 84.6617 356.939 84.6617C358.133 84.6617 359.084 83.9976 359.084 82.8933V82.8853Z" fill="black"></path>
    <path fill-rule="evenodd" clip-rule="evenodd" d="M366.665 84.5736V78.7644H365.456L364.175 80.7408C364.002 81.0129 363.861 81.2609 363.758 81.469H363.735C363.609 81.2449 363.468 81.0369 363.295 80.7888L361.865 78.7644H360.671V84.5736H361.983V81.565C361.983 81.405 361.983 81.1809 361.975 80.9809H361.991C362.116 81.2049 362.25 81.381 362.368 81.549L363.436 83.0293H364.018L364.953 81.597C365.055 81.445 365.275 81.1089 365.33 80.9809C365.33 81.1569 365.33 81.397 365.33 81.613V84.5736H366.65H366.665Z" fill="black"></path>
    <path d="M5.80622 51.3426L9.13754 49.5263L9.53038 49.3182C10.5518 48.7581 11.1175 48.198 11.2118 47.6379L11.251 47.3898C11.2668 47.2938 11.306 47.2538 11.3768 47.2698C11.4553 47.2858 11.5103 47.4058 11.5575 47.6379C11.5967 47.8699 11.6046 48.134 11.5732 48.414C11.526 48.8781 11.3532 49.2862 11.0625 49.6303C10.7718 49.9744 10.3161 50.3104 9.70324 50.6305L6.59191 52.2548L6.4112 52.3429C6.1912 52.4469 6.06549 52.6389 6.03407 52.919L5.92407 53.9512L5.93978 54.1272C5.97121 54.1913 6.04978 54.2313 6.17549 54.2473L8.5797 54.5113L8.88612 54.5353C9.32611 54.5833 9.63252 54.5913 9.79752 54.5673C9.96251 54.5433 10.1197 54.4553 10.2689 54.3033C10.4654 54.0952 10.6146 53.7672 10.7089 53.3031C10.7482 53.119 10.8111 53.031 10.9053 53.031C11.0075 53.031 11.0468 53.119 11.0232 53.3031C11.0153 53.3751 10.9839 53.5271 10.9368 53.7592C10.8896 53.9672 10.8425 54.2953 10.7953 54.7434L10.7089 55.4875L10.6775 55.8956C10.6618 56.0716 10.6539 56.2877 10.6539 56.5357C10.6539 56.7438 10.6539 56.8798 10.6461 56.9598C10.6382 57.0879 10.5754 57.1519 10.4732 57.1359C10.4025 57.1359 10.3554 57.0559 10.3475 56.9278C10.3161 56.5037 10.1589 56.2157 9.87609 56.0556C9.59324 55.8956 9.01969 55.7676 8.15543 55.6716L2.63989 55.0714L1.83848 54.9994C1.04494 54.9114 0.565667 55.1515 0.416386 55.7036L0.322104 56.0636C0.274962 56.2237 0.212107 56.3037 0.117825 56.2957C0.0156849 56.2877 -0.0235996 56.1917 -0.00788579 56.0156C-0.00788579 55.9756 0.0235418 55.7916 0.07854 55.4715C0.109968 55.2875 0.149252 55.0554 0.172823 54.7834C0.196393 54.5433 0.219964 54.1352 0.243535 53.5511C0.259249 53.135 0.282819 52.7669 0.314247 52.4469C0.439957 51.2546 0.754233 50.3744 1.25707 49.8143C1.75992 49.2542 2.45132 49.0222 3.32344 49.1182C4.47054 49.2462 5.29552 49.9824 5.78265 51.3266L5.80622 51.3426ZM5.39766 53.6151L5.49194 52.7349C5.56265 52.0548 5.43694 51.5027 5.10695 51.0706C4.77696 50.6385 4.29769 50.3904 3.65343 50.3264C2.91488 50.2464 2.27847 50.4465 1.7442 50.9186C1.20993 51.3907 0.903514 52.0468 0.817088 52.863C0.78566 53.167 0.817088 53.3831 0.895657 53.5111C0.982083 53.6391 1.15493 53.7192 1.42207 53.7432L1.67349 53.7672L4.78482 54.1032C5.02053 54.1272 5.17766 54.1112 5.24838 54.0552C5.31909 53.9992 5.36623 53.8472 5.3898 53.6071L5.39766 53.6151Z" fill="black"></path>
    <path d="M3.22142 38.524C3.75568 36.9797 4.66708 35.8914 5.9399 35.2353C7.22057 34.5871 8.58767 34.5231 10.0569 35.0512C11.6047 35.6114 12.7047 36.5636 13.349 37.9158C13.9932 39.2681 14.0482 40.7164 13.5061 42.2688C12.9561 43.8611 12.029 44.9733 10.7405 45.6135C9.45193 46.2536 8.03769 46.2936 6.49774 45.7415C5.8299 45.5015 5.20921 45.1334 4.64351 44.6373C4.07782 44.1412 3.65354 43.597 3.36284 42.9969C3.05642 42.3648 2.89143 41.6446 2.86786 40.8365C2.84428 40.0283 2.95428 39.2521 3.21356 38.508L3.22142 38.524ZM3.51998 39.1641C3.11928 40.3084 3.18213 41.3566 3.70854 42.3008C4.23495 43.245 5.1385 43.9491 6.41917 44.4132C7.88841 44.9413 9.27122 44.9573 10.5755 44.4612C11.8876 43.9651 12.7518 43.0849 13.184 41.8367C13.5847 40.6924 13.4982 39.5962 12.9404 38.556C12.3826 37.5158 11.4712 36.7716 10.2141 36.3155C8.76838 35.7954 7.40914 35.8034 6.12847 36.3475C4.85565 36.8916 3.98353 37.8278 3.51998 39.1641Z" fill="black"></path>
    <path d="M16.7274 31.5785C17.2303 31.8985 17.5603 32.0586 17.7331 32.0426C17.8981 32.0346 18.126 31.8345 18.4088 31.4664C18.5031 31.3384 18.5895 31.2984 18.6681 31.3464C18.7702 31.4104 18.7702 31.5224 18.6681 31.6745C18.6445 31.7225 18.5581 31.8345 18.4245 32.0025C18.346 32.1066 18.2281 32.2586 18.0867 32.4666L17.741 32.9708L17.4346 33.4989C17.2303 33.8269 17.1046 34.051 17.0496 34.171C16.9946 34.315 16.9474 34.4031 16.9239 34.4431C16.861 34.5471 16.7903 34.5711 16.7196 34.5231C16.6332 34.4671 16.6253 34.363 16.696 34.203C16.8689 33.7949 16.9239 33.4989 16.8374 33.3148C16.7589 33.1228 16.4839 32.8827 16.0203 32.5787L15.7453 32.3946L13.8047 31.1544C13.5218 30.9783 13.3097 30.8663 13.1526 30.8183C12.9954 30.7703 12.7519 30.7543 12.4219 30.7543H8.39128H7.88843C7.60559 30.7543 7.33059 30.8263 7.0556 30.9783C6.78061 31.1304 6.57633 31.3224 6.43491 31.5545C6.35634 31.6825 6.27777 31.7225 6.1992 31.6745C6.10492 31.6105 6.09706 31.5144 6.18349 31.3784C6.24634 31.2664 6.32491 31.1624 6.41134 31.0503C6.62347 30.7863 6.8199 30.4902 7.01632 30.1782C7.41702 29.53 7.66844 29.1059 7.75487 28.9139C7.85701 28.7059 7.91986 28.5858 7.95129 28.5458C8.02986 28.4178 8.10843 28.3778 8.19485 28.4338C8.25771 28.4738 8.27342 28.5538 8.24199 28.6738C8.14771 29.0259 8.20271 29.274 8.41485 29.402C8.52484 29.474 8.79983 29.514 9.21625 29.514L9.64838 29.53L12.6576 29.514H12.8461C12.9326 29.514 12.9876 29.49 13.0111 29.45C13.0426 29.402 13.0347 29.338 13.0111 29.25L12.9561 29.1219L12.1154 27.2415L11.809 26.5934C11.5183 25.9773 11.2905 25.6172 11.1255 25.5132C10.8348 25.3291 10.4498 25.4732 9.97837 25.9453C9.88408 26.0413 9.79766 26.0653 9.7348 26.0093C9.66409 25.9613 9.65623 25.8813 9.71909 25.7852C9.75837 25.7212 9.8448 25.6092 9.97051 25.4572C10.0726 25.3451 10.2691 25.0411 10.5755 24.545C10.8505 24.0889 11.0233 23.8008 11.0862 23.6648C11.1726 23.4887 11.2276 23.3607 11.2669 23.2887C11.3298 23.1607 11.4083 23.1287 11.4947 23.1847C11.5576 23.2247 11.5812 23.3127 11.5419 23.4487C11.424 23.9208 11.4712 24.4089 11.6676 24.897L12.0369 25.7372L13.404 28.8579L13.5297 29.1619C13.6633 29.482 13.8282 29.7061 14.0168 29.8261L16.751 31.5705L16.7274 31.5785Z" fill="black"></path>
    <path d="M21.2136 21.9924L19.2887 24.0408C19.0216 24.3209 18.8801 24.5129 18.8644 24.6249C18.8487 24.737 18.9037 24.969 19.053 25.3291L19.5244 26.4973C19.7365 27.0334 19.9408 27.3855 20.1215 27.5615C20.2944 27.7296 20.4594 27.8096 20.6244 27.8016C20.7894 27.7936 21.0172 27.6816 21.3158 27.4735C21.4415 27.3855 21.5436 27.3695 21.6143 27.4255C21.685 27.4815 21.6615 27.5696 21.5593 27.6736C21.5201 27.7136 21.4572 27.7776 21.3708 27.8576L20.8286 28.3697C20.6479 28.5378 20.4437 28.7458 20.2237 28.9778C20.1215 29.0899 20.043 29.1779 19.9958 29.2419C19.8387 29.4579 19.7523 29.57 19.7287 29.586C19.6344 29.69 19.5558 29.706 19.4851 29.642C19.4223 29.586 19.4144 29.514 19.4615 29.4339L19.5951 29.1619C19.6423 29.0659 19.6501 28.8738 19.6108 28.5938C19.5715 28.3137 19.5087 28.0497 19.4144 27.7936L19.2023 27.2735L15.596 18.1676C15.5252 18.0075 15.5252 17.9035 15.5802 17.8395C15.6352 17.7755 15.7374 17.7835 15.8867 17.8395L24.2935 21.3842L24.71 21.5523C25.3306 21.8163 25.7471 21.9364 25.9592 21.9284C26.1792 21.9204 26.4935 21.7683 26.8942 21.4723C27.0277 21.3762 27.122 21.3602 27.1849 21.4323C27.2477 21.4963 27.2242 21.5763 27.1299 21.6803C27.0984 21.7123 27.0277 21.7843 26.9177 21.8803C26.7135 22.0564 26.3756 22.3925 25.9042 22.8966C25.4171 23.4167 25.1185 23.7607 25.0164 23.9128C24.9535 24.0088 24.9064 24.0728 24.8749 24.1048C24.7807 24.2008 24.6942 24.2168 24.6235 24.1448C24.5685 24.0888 24.5764 24.0008 24.6471 23.8888L24.7728 23.6727C24.9142 23.4487 24.8749 23.2326 24.655 23.0166C24.4585 22.8245 23.9635 22.5605 23.1621 22.2164L22.1565 21.7843C21.8736 21.6643 21.7008 21.6083 21.6222 21.6243C21.5436 21.6403 21.4101 21.7523 21.2136 21.9604V21.9924ZM20.3808 21.0482L17.348 19.7839L17.183 19.7199C17.0259 19.6479 16.9159 19.6399 16.8609 19.6879C16.8295 19.7119 16.8373 19.7759 16.8766 19.8799L18.2437 23.3287C18.2987 23.4807 18.3459 23.5687 18.3773 23.6007C18.4716 23.6967 18.6051 23.6567 18.7701 23.4807L18.9194 23.3367L20.5301 21.6323C20.7108 21.4403 20.7501 21.3042 20.6558 21.2162C20.6322 21.1922 20.5772 21.1602 20.4987 21.1202L20.3729 21.0482H20.3808Z" fill="black"></path>
    <path d="M28.5676 18.2236L28.7247 18.4476C29.0705 18.9677 29.3297 19.2398 29.4869 19.2638C29.644 19.2958 29.9976 19.1198 30.5397 18.7437C31.3332 18.1916 31.9618 17.6234 32.4096 17.0233C32.8653 16.4232 33.0696 15.9191 33.0146 15.487C32.9989 15.327 33.0146 15.2309 33.0775 15.1909C33.1482 15.1429 33.2032 15.1669 33.2582 15.2549C33.431 15.551 33.5017 15.9591 33.4703 16.4792C33.4232 17.2074 32.9832 17.8475 32.1739 18.4156C32.0325 18.5116 31.8754 18.6157 31.6868 18.7197L30.964 19.1438C30.5397 19.3918 30.0997 19.6719 29.6519 19.9839C29.1333 20.344 28.709 20.6721 28.3948 20.9682C28.2612 21.0962 28.1512 21.1842 28.0648 21.2562C27.9626 21.3362 27.8841 21.3362 27.8291 21.2562C27.7898 21.1922 27.8055 21.0962 27.8998 20.9842C28.1276 20.6881 28.2376 20.424 28.2219 20.176C28.2062 19.9279 28.0569 19.5999 27.7741 19.1838L27.5776 18.8797L23.7042 13.0785C23.3192 12.5024 22.8635 12.3263 22.345 12.5504L22.015 12.6944C21.8971 12.7424 21.8185 12.7344 21.7793 12.6784C21.7164 12.5824 21.7557 12.4864 21.8971 12.3823C21.9992 12.3183 22.1328 12.2303 22.3135 12.1263C22.6199 11.9502 22.9499 11.7422 23.3113 11.4862C23.7042 11.2141 24.0499 10.958 24.3485 10.718C24.5056 10.598 24.592 10.5339 24.6156 10.5179C24.7177 10.4459 24.7884 10.4459 24.8356 10.5099C24.8984 10.606 24.8749 10.702 24.7727 10.822L24.5842 11.0301C24.262 11.3901 24.3327 11.9102 24.7884 12.5904L28.5519 18.2316L28.5676 18.2236Z" fill="black"></path>
    <path d="M45.1537 4.65277L46.9765 10.9341C47.1415 11.4942 47.2279 11.8463 47.2358 11.9743C47.2436 12.1023 47.1965 12.1824 47.0786 12.2144C47.0001 12.2304 46.9372 12.2224 46.8901 12.1984L46.6701 12.0543L38.3496 6.6852L38.2553 6.62118C38.2553 6.62118 38.1768 6.59718 38.1375 6.60518C38.0432 6.63719 38.0275 6.75721 38.0982 6.98926L39.5832 12.0943L39.6696 12.4144L39.8503 12.9425C39.9839 13.2626 40.1331 13.4706 40.2981 13.5506C40.4631 13.6387 40.7538 13.6547 41.1624 13.5907C41.3274 13.5586 41.4295 13.5987 41.461 13.7107C41.4845 13.8067 41.4531 13.8707 41.3431 13.9027C41.2724 13.9267 41.2017 13.9427 41.1152 13.9587C41.0603 13.9587 40.8403 14.0147 40.4631 14.1108L39.701 14.2948L39.3474 14.4148C39.1589 14.4708 38.9782 14.5349 38.8132 14.6069C38.6875 14.6629 38.601 14.6949 38.546 14.7109C38.4203 14.7509 38.3339 14.7189 38.2946 14.6309C38.2711 14.5589 38.3182 14.4788 38.4518 14.3908C38.821 14.1188 39.041 13.8387 39.1196 13.5506C39.1903 13.2626 39.151 12.8465 38.9939 12.3104L37.5089 7.1973C37.2575 6.33312 36.9275 5.68498 36.5111 5.2689C36.0947 4.85281 35.6233 4.68477 35.089 4.76479C34.9554 4.78879 34.869 4.74879 34.8454 4.65277C34.8219 4.56475 34.8612 4.50073 34.9712 4.46873C34.9947 4.46873 35.034 4.45272 35.089 4.43672L35.3954 4.3567L35.8904 4.22067L36.0083 4.18067C36.1261 4.14066 36.2125 4.10865 36.2754 4.09265C36.4011 4.05264 36.5425 4.09265 36.7075 4.19667L45.7665 9.98189C45.9158 10.0779 45.9944 10.1179 46.0258 10.1019C46.0729 10.0859 46.0887 10.0299 46.0651 9.93388L44.9887 6.2211L44.7058 5.20488L44.1166 3.50852C43.9437 3.10044 43.7316 2.83638 43.488 2.71636C43.2366 2.59633 42.8516 2.57233 42.3174 2.64434C42.1681 2.66034 42.0816 2.62034 42.0502 2.52432C42.0266 2.4283 42.0816 2.36428 42.2231 2.32427C42.2859 2.30827 42.3881 2.27626 42.5452 2.25226C42.8909 2.18024 43.3545 2.06022 43.928 1.89218C44.2344 1.79616 44.478 1.71615 44.6509 1.62813C44.8001 1.55611 44.918 1.5001 45.0044 1.47609C45.1301 1.43609 45.2165 1.47609 45.2558 1.57211C45.2794 1.63613 45.248 1.70014 45.1458 1.76416C44.863 1.93219 44.7058 2.11623 44.6587 2.31627C44.6116 2.52432 44.6587 2.86039 44.8001 3.34049L45.0358 4.14866L45.1615 4.65277H45.1537Z" fill="black"></path>
    <path d="M51.6042 2.02015L51.7849 5.18882C51.8006 5.42887 51.8242 5.5729 51.8792 5.62091C51.9263 5.66892 52.0599 5.68493 52.2799 5.66892L53.4662 5.59691C54.0084 5.5649 54.4248 5.50889 54.7391 5.42887C55.0141 5.35686 55.1869 5.26884 55.2655 5.16482C55.344 5.0688 55.4069 4.84475 55.454 4.49267C55.4698 4.35665 55.5326 4.29263 55.6347 4.29263C55.7369 4.29263 55.7919 4.35665 55.7919 4.49267C55.7919 4.53268 55.7919 4.5887 55.7919 4.66871C55.7762 5.18082 55.7762 5.63692 55.7919 6.053C55.8076 6.37307 55.8469 6.68514 55.894 6.9972C55.9097 7.10123 55.9176 7.17324 55.9255 7.22125C55.9255 7.34928 55.8862 7.42129 55.7919 7.42129C55.6819 7.42129 55.6112 7.37328 55.5876 7.26126L55.5247 7.04521C55.4462 6.70114 55.3048 6.46909 55.1162 6.34907C54.9276 6.23704 54.6055 6.18903 54.1655 6.21304L52.4606 6.31706C52.2091 6.33306 52.0441 6.36507 51.9577 6.42908C51.8713 6.4851 51.8399 6.58912 51.8477 6.74915L51.8713 7.00521L52.0363 9.88581C52.0599 10.3259 52.1541 10.606 52.3191 10.702C52.4841 10.806 52.8848 10.838 53.5134 10.798C55.5248 10.678 56.7897 10.1419 57.3083 9.18167C57.3633 9.09365 57.4183 9.03763 57.4733 9.02963C57.5675 9.02163 57.6147 9.08564 57.6225 9.22167C57.6383 9.55774 57.4811 9.97383 57.1354 10.4619C56.7111 11.0541 56.1612 11.3661 55.4776 11.4061C55.3283 11.4141 55.1319 11.4141 54.8805 11.4061C53.8905 11.3741 53.0813 11.3741 52.4448 11.4061C51.5492 11.4541 50.9206 11.5262 50.5513 11.6142C50.3549 11.6622 50.2292 11.6862 50.1506 11.6942C49.9856 11.7022 49.9071 11.6542 49.8992 11.5422C49.8992 11.4541 49.9542 11.3901 50.0878 11.3501L50.3785 11.2461C50.7399 11.1181 50.9049 10.742 50.8735 10.1179L50.8499 9.60575L50.4728 2.97235C50.4335 2.22019 50.3235 1.72409 50.1428 1.47604C49.9621 1.22798 49.6478 1.11596 49.1764 1.13997C49.0271 1.14797 48.9485 1.10796 48.9407 1.00394C48.9407 0.859907 49.0507 0.77989 49.2785 0.771888C49.4042 0.771888 49.5771 0.771888 49.7971 0.77989C50.5356 0.819898 51.4235 0.811897 52.4527 0.747883C53.0813 0.707875 53.6312 0.667866 54.1105 0.619856L55.2026 0.499831C55.5012 0.467824 55.6897 0.451821 55.7526 0.435817C55.8862 0.403811 55.9883 0.387807 56.059 0.387807C56.2319 0.379805 56.3183 0.451821 56.3262 0.603853C56.3262 0.651863 56.3262 0.707875 56.3183 0.77989C56.3104 0.851905 56.3026 1.05995 56.2947 1.40402V1.86812C56.2869 2.17218 56.2712 2.36422 56.2476 2.43624C56.224 2.51626 56.169 2.55627 56.0826 2.56427C55.9804 2.57227 55.9255 2.50025 55.9255 2.34022L55.9097 2.13218C55.9097 1.96414 55.8626 1.80411 55.7919 1.66008C55.6819 1.42803 55.4698 1.284 55.1712 1.22798C54.8726 1.16397 54.3226 1.16397 53.5291 1.20398L52.3191 1.27599C52.0049 1.292 51.8006 1.34801 51.7142 1.43603C51.6277 1.52405 51.5884 1.70809 51.6042 1.98815V2.02015Z" fill="black"></path>
    <path d="M62.1558 3.22844L61.5901 9.07768C61.5194 9.80583 61.5194 10.2939 61.5901 10.534C61.6687 10.814 61.7708 11.0141 61.9123 11.1341C62.0537 11.2541 62.2815 11.3582 62.5958 11.4382C62.8472 11.5022 62.9651 11.5742 62.9572 11.6702C62.9415 11.7902 62.8629 11.8463 62.7058 11.8303C62.6272 11.8223 62.533 11.8063 62.4151 11.7742C62.258 11.7342 61.983 11.6942 61.6058 11.6542L60.498 11.5262L59.5866 11.4942C59.4373 11.4942 59.3116 11.4942 59.2173 11.4862C59.0838 11.4702 59.0131 11.4142 59.0288 11.3101C59.0288 11.2221 59.1231 11.1661 59.2802 11.1581C59.673 11.1261 59.9402 11.0141 60.0737 10.822C60.2073 10.63 60.3016 10.1979 60.3644 9.53377L61.0166 2.83636C61.0794 2.18822 61.048 1.74813 60.9223 1.50808C60.7966 1.26803 60.498 1.08399 60.0345 0.963962C59.8773 0.915952 59.8066 0.851938 59.8066 0.755918C59.8066 0.643894 59.893 0.595884 60.0423 0.611887C60.0816 0.611887 60.1287 0.619889 60.1759 0.635892C60.5452 0.723911 61.0401 0.795926 61.653 0.85994C62.0301 0.899948 62.3601 0.923953 62.6272 0.931955H63.1458C63.2401 0.931955 63.3108 0.939957 63.3422 0.947958C63.4836 0.963962 63.5465 1.01997 63.5386 1.11599C63.5308 1.20401 63.4522 1.26803 63.3186 1.30003L62.9022 1.42006C62.5094 1.52408 62.258 2.13221 62.1558 3.23644V3.22844Z" fill="black"></path>
    <path d="M73.1085 11.6544L73.5956 9.96605C73.682 9.66198 73.6821 9.42993 73.5799 9.2859C73.4856 9.13387 73.2421 8.98984 72.8571 8.83781C72.6685 8.76579 72.5899 8.66977 72.6214 8.55775C72.6449 8.46173 72.7392 8.43773 72.9121 8.49374L73.2028 8.58976L73.7528 8.76579C74.5149 8.98984 74.9549 9.11787 75.0806 9.14988C75.4263 9.22189 75.6306 9.2699 75.6856 9.2859C75.8034 9.31791 75.8427 9.38192 75.8113 9.47794C75.7877 9.55796 75.6934 9.59797 75.5363 9.59797C75.1356 9.57397 74.8763 9.79801 74.7349 10.2621L74.672 10.5022L73.9728 12.9107L73.9178 13.1587L73.8392 13.2547C73.8392 13.2547 73.7292 13.2707 73.6113 13.2547C73.4699 13.2307 73.2421 13.2627 72.9199 13.3428L72.3464 13.4868C71.2228 13.7669 70.1072 13.7428 69.0072 13.4068C67.5301 12.9667 66.4616 12.1185 65.7937 10.8702C65.1259 9.62198 65.0159 8.24568 65.448 6.74137C65.9037 5.16503 66.7837 3.99679 68.0879 3.24463C69.3922 2.49247 70.7986 2.34044 72.3071 2.78853C72.8885 2.96457 73.4856 3.22862 74.0828 3.5967C74.6877 3.96478 75.1434 4.33286 75.4577 4.70093C75.5048 4.75695 75.5441 4.78895 75.5677 4.79696C75.5991 4.80496 75.6541 4.79696 75.7248 4.78095L75.9448 4.70093C75.9841 4.68493 76.0234 4.67693 76.0627 4.68493C76.157 4.70894 76.1648 4.84497 76.0941 5.07701C76.0627 5.18904 76.0313 5.36508 75.992 5.60513L75.8584 6.33328C75.827 6.53332 75.8113 6.73337 75.7956 6.93341C75.7956 7.02943 75.7877 7.10944 75.772 7.16546C75.7406 7.28548 75.6698 7.33349 75.5677 7.30949C75.5048 7.29348 75.4577 7.23747 75.442 7.13345C75.2849 6.22126 74.8842 5.39708 74.232 4.66093C73.5721 3.92477 72.8021 3.42066 71.9142 3.15661C70.7986 2.82054 69.7693 2.98057 68.8108 3.62871C67.8601 4.27685 67.1844 5.28506 66.7916 6.64535C66.3673 8.10966 66.4223 9.44594 66.9487 10.6782C67.4751 11.9025 68.3394 12.6946 69.5336 13.0547C70.6729 13.3988 71.6864 13.2547 72.5664 12.6306C72.7785 12.4786 72.9592 12.1585 73.1006 11.6704L73.1085 11.6544Z" fill="black"></path>
    <path d="M81.1381 11.9825L85.0037 14.399C85.1923 14.519 85.3258 14.575 85.4044 14.575C85.483 14.575 85.5537 14.511 85.6323 14.383L87.0072 12.0945C87.2822 11.6304 87.4236 11.2703 87.4236 11.0063C87.4236 10.7422 87.2901 10.4781 87.0151 10.2141C86.9051 10.1021 86.8658 10.014 86.9208 9.93403C86.9758 9.86201 87.0465 9.86201 87.1565 9.92603C87.2508 9.98204 87.3922 10.0861 87.5886 10.2381C87.8558 10.4541 88.1543 10.6622 88.4765 10.8622C88.9479 11.1583 89.2857 11.3503 89.49 11.4383C89.6157 11.4944 89.71 11.5344 89.7493 11.5664C89.8593 11.6304 89.8829 11.7104 89.8279 11.7904C89.7886 11.8544 89.71 11.8704 89.5921 11.8304L89.2857 11.7264C89.1286 11.6704 88.9557 11.6944 88.7593 11.8064C88.5629 11.9184 88.3979 12.0865 88.2643 12.3105L84.3673 18.7759C84.0845 19.256 83.943 19.6241 83.9666 19.8881C83.9902 20.1522 84.1709 20.4242 84.5166 20.6963C84.6423 20.8003 84.6894 20.8883 84.6502 20.9604C84.5952 21.0724 84.5009 21.0804 84.3752 21.0004C84.2809 20.9444 84.1787 20.8643 84.053 20.7523C83.9588 20.6723 83.7466 20.5203 83.4088 20.3122L82.9295 20.0002L82.4267 19.7041C82.3481 19.6561 82.2381 19.5921 82.0967 19.5281C81.8138 19.384 81.6567 19.296 81.6253 19.28C81.5153 19.216 81.4838 19.144 81.5467 19.056C81.5938 18.9839 81.7038 18.9759 81.861 19.048C82.3717 19.256 82.8274 19.0159 83.2438 18.3358L83.4088 18.0797L84.8859 15.6232C85.0116 15.4152 85.0666 15.2792 85.0509 15.2231C85.0351 15.1591 84.9094 15.0631 84.6894 14.9191L80.8317 12.5106C80.5803 12.3505 80.4074 12.2865 80.321 12.2945C80.2267 12.3105 80.1167 12.4226 79.991 12.6306L78.5139 15.0791C78.2311 15.5432 78.1054 15.9113 78.1446 16.1913C78.1761 16.4714 78.3725 16.7515 78.7418 17.0395C78.8911 17.1596 78.9382 17.2636 78.8832 17.3676C78.8361 17.4636 78.7418 17.4716 78.6082 17.3836C78.5532 17.3516 78.4511 17.2716 78.3018 17.1516C78.1997 17.0555 77.9404 16.8795 77.5318 16.6314L76.9897 16.2794L76.5418 16.0233C76.4318 15.9593 76.2904 15.8793 76.1176 15.7913C75.874 15.6712 75.7326 15.5912 75.6854 15.5672C75.5754 15.4952 75.544 15.4232 75.599 15.3432C75.6462 15.2632 75.7326 15.2472 75.8661 15.2952L76.2433 15.4232C76.4633 15.4952 76.6833 15.4312 76.9033 15.2311C77.1233 15.0231 77.4218 14.607 77.7989 13.9829L81.256 8.23767C81.4917 7.85359 81.586 7.52552 81.5467 7.26146C81.5074 6.99741 81.3188 6.71735 80.981 6.42929C80.8631 6.33327 80.8317 6.24525 80.8789 6.16523C80.9338 6.06921 81.0203 6.06121 81.1303 6.14123C81.2088 6.19724 81.3346 6.29326 81.4995 6.42929C81.8217 6.68534 82.2067 6.9494 82.6702 7.23746C82.9845 7.4295 83.2831 7.59754 83.5738 7.73356C83.6995 7.78958 83.8016 7.83759 83.8645 7.87759C83.9902 7.95761 84.0295 8.04563 83.9745 8.13365C83.9352 8.20566 83.8409 8.21366 83.7073 8.17366C83.3695 8.06963 83.1024 8.05363 82.9216 8.13365C82.7331 8.21367 82.5445 8.41371 82.3402 8.74978L80.9024 11.1423C80.7531 11.3983 80.6824 11.5664 80.706 11.6464C80.7217 11.7264 80.871 11.8544 81.146 12.0225L81.1381 11.9825Z" fill="black"></path>
    <path d="M88.1544 21.2723L92.3657 16.9914C92.845 16.5033 93.1279 16.0712 93.2143 15.6951C93.3007 15.3191 93.1986 14.983 92.9 14.6789C92.7507 14.5269 92.7114 14.4149 92.7979 14.3349C92.8764 14.2548 92.9943 14.2868 93.1357 14.4309C93.1593 14.4629 93.2536 14.5589 93.4029 14.7269C93.505 14.847 93.6543 14.999 93.8428 15.199C94.11 15.4711 94.3221 15.6791 94.4714 15.8232L95.1235 16.4073C95.3278 16.5913 95.5164 16.7674 95.6892 16.9434C96.4906 17.7596 96.962 18.5678 97.0956 19.3599C97.237 20.1521 97.0249 20.8322 96.467 21.4004C95.8856 21.9845 95.2021 22.2005 94.4007 22.0325L94 21.9605C93.9136 21.9365 93.8586 21.9365 93.8428 21.9605C93.8114 22.0005 93.8664 22.1365 94.0157 22.3686C94.3221 22.8727 94.4321 23.4248 94.3457 24.0409C94.2593 24.657 93.9921 25.1852 93.5443 25.6412C92.8764 26.3214 92.0829 26.6335 91.1558 26.5694C90.2287 26.5134 89.388 26.0973 88.6337 25.3212L88.233 24.8731L87.7459 24.337L87.3373 23.8569C87.0623 23.5448 86.8423 23.2968 86.6695 23.1287C86.4966 22.9527 86.3474 22.8167 86.2138 22.7046C86.0174 22.5526 85.8838 22.4326 85.8131 22.3606C85.711 22.2565 85.6952 22.1685 85.7738 22.0885C85.8367 22.0325 85.9231 22.0485 86.0488 22.1445C86.3945 22.4166 86.7559 22.4246 87.1095 22.1845C87.4238 21.9765 87.7773 21.6724 88.1623 21.2803L88.1544 21.2723ZM91.4622 20.2081C91.3286 20.0721 91.2422 20.0001 91.1794 19.9921C91.1244 19.9841 91.0458 20.0241 90.9594 20.1121L88.4452 22.6646L88.1859 22.9047L88.0052 23.1527C87.903 23.3608 87.9187 23.6088 88.068 23.8969C88.2094 24.1849 88.508 24.553 88.948 25.0011C89.5137 25.5852 90.1108 25.8813 90.7237 25.8973C91.3443 25.9133 91.9179 25.6493 92.4522 25.1051C93.0022 24.545 93.2929 23.9049 93.3007 23.1847C93.3164 22.4566 93.065 21.8324 92.5307 21.2963L91.4543 20.2001L91.4622 20.2081ZM91.9179 19.896L92.8136 20.8082C93.725 21.7364 94.5892 21.7844 95.4064 20.9523C95.9092 20.4401 96.1449 19.816 96.0978 19.0639C96.0585 18.3197 95.7521 17.6556 95.1864 17.0794C94.9349 16.8234 94.7385 16.6954 94.5814 16.6874C94.4321 16.6794 94.2435 16.7834 94.0157 17.0154L91.8393 19.2319C91.7136 19.3599 91.6508 19.4639 91.6665 19.536C91.6743 19.608 91.7608 19.736 91.9258 19.896H91.9179Z" fill="black"></path>
    <path d="M104.284 27.8818C105.125 29.2741 105.384 30.6824 105.078 32.1067C104.764 33.531 103.954 34.6512 102.635 35.4754C101.236 36.3476 99.8218 36.6117 98.3761 36.2676C96.9383 35.9235 95.799 35.0513 94.9584 33.651C94.0941 32.2107 93.8191 30.7784 94.1412 29.3541C94.4634 27.9298 95.3198 26.7856 96.7104 25.9214C97.3154 25.5453 97.9833 25.2893 98.7139 25.1532C99.4446 25.0172 100.136 25.0252 100.765 25.1772C101.432 25.3373 102.092 25.6573 102.721 26.1454C103.357 26.6336 103.876 27.2177 104.277 27.8898L104.284 27.8818ZM103.601 27.7218C102.98 26.6896 102.14 26.0814 101.095 25.8974C100.05 25.7134 98.9418 25.9854 97.779 26.7056C96.4512 27.5297 95.5712 28.618 95.1312 29.9623C94.6834 31.3065 94.8091 32.5468 95.4926 33.675C96.1133 34.7073 96.9933 35.3314 98.1404 35.5474C99.2796 35.7555 100.427 35.5074 101.566 34.8033C102.87 33.9871 103.719 32.9069 104.112 31.5546C104.497 30.2023 104.332 28.93 103.609 27.7218H103.601Z" fill="black"></path>
    <path d="M105.047 43.245L102.674 46.2537L102.391 46.6057C101.66 47.5339 101.362 48.2701 101.495 48.8222L101.55 49.0623C101.574 49.1503 101.55 49.2063 101.488 49.2223C101.409 49.2383 101.307 49.1503 101.189 48.9502C101.063 48.7502 100.961 48.5181 100.875 48.2381C100.741 47.79 100.741 47.3499 100.875 46.9178C101.008 46.4857 101.299 45.9976 101.739 45.4535L103.97 42.7089L104.096 42.5489C104.261 42.3648 104.3 42.1408 104.222 41.8687L103.923 40.8765L103.845 40.7245C103.79 40.6765 103.703 40.6685 103.585 40.7085L101.275 41.4286L100.985 41.5327C100.56 41.6687 100.278 41.7807 100.136 41.8687C99.9947 41.9568 99.8847 42.1008 99.8062 42.3008C99.704 42.5649 99.6962 42.933 99.7904 43.3971C99.8219 43.5811 99.7983 43.6931 99.7119 43.7251C99.6255 43.7651 99.5547 43.6931 99.4997 43.5251C99.4762 43.4531 99.4447 43.301 99.3976 43.077C99.3583 42.8689 99.2719 42.5489 99.1462 42.1168L98.934 41.3966L98.8083 41.0126C98.7533 40.8445 98.6826 40.6445 98.5883 40.4124C98.5098 40.2204 98.4626 40.0924 98.4391 40.0203C98.3998 39.8923 98.4391 39.8203 98.5412 39.7883C98.6119 39.7643 98.6826 39.8123 98.7455 39.9323C98.9419 40.3084 99.1933 40.5084 99.5155 40.5485C99.8376 40.5805 100.411 40.4684 101.244 40.2124L106.54 38.556L107.302 38.3C108.064 38.0599 108.409 37.6518 108.339 37.0837L108.284 36.7156C108.26 36.5476 108.292 36.4516 108.378 36.4276C108.48 36.3956 108.551 36.4676 108.606 36.6356C108.614 36.6756 108.661 36.8517 108.732 37.1717C108.771 37.3558 108.834 37.5798 108.912 37.8439C108.983 38.0759 109.117 38.46 109.321 39.0041C109.462 39.3962 109.58 39.7483 109.674 40.0443C110.02 41.1886 110.075 42.1248 109.824 42.8449C109.572 43.5571 109.03 44.0532 108.189 44.3173C107.089 44.6613 106.045 44.3172 105.07 43.269L105.047 43.245ZM104.544 40.9965L104.803 41.8447C105 42.5009 105.337 42.965 105.801 43.229C106.265 43.4931 106.815 43.5331 107.427 43.333C108.142 43.109 108.653 42.6689 108.959 42.0128C109.266 41.3566 109.297 40.6365 109.062 39.8443C108.975 39.5482 108.865 39.3562 108.732 39.2762C108.606 39.1962 108.409 39.1882 108.158 39.2762L107.914 39.3642L104.913 40.3084C104.685 40.3804 104.544 40.4604 104.505 40.5405C104.465 40.6205 104.473 40.7805 104.544 41.0126V40.9965Z" fill="black"></path>
    <path d="M112.322 53.1189C112.369 53.6791 112.322 54.1512 112.204 54.5512L112.024 55.1114C112.008 55.1594 112 55.2074 112.008 55.2554C112.008 55.3194 112.047 55.3754 112.102 55.4394L112.204 55.5435C112.204 55.5435 112.244 55.5835 112.244 55.6315C112.259 55.7595 112.134 55.8395 111.882 55.8555C111.796 55.8555 111.544 55.9195 111.112 56.0236L110.334 56.2156C110.169 56.2556 110.067 56.2796 110.02 56.2796C109.863 56.2956 109.784 56.2396 109.769 56.1356C109.769 56.0476 109.879 55.9595 110.114 55.8555C110.657 55.6235 111.081 55.2074 111.387 54.6073C111.702 54.0071 111.827 53.351 111.772 52.6468C111.725 52.0867 111.529 51.6306 111.175 51.2786C110.822 50.9265 110.397 50.7744 109.91 50.8145C109.486 50.8465 109.117 50.9985 108.826 51.2706C108.574 51.5106 108.394 51.7587 108.292 52.0147C108.19 52.2788 108.017 52.9189 107.773 53.9271C107.302 55.9035 106.367 56.9438 104.952 57.0638C103.994 57.1438 103.185 56.8557 102.525 56.1916C101.857 55.5355 101.488 54.6473 101.393 53.543C101.362 53.1429 101.385 52.6949 101.456 52.2068C101.535 51.7106 101.637 51.3506 101.763 51.1185C101.818 51.0225 101.873 50.9505 101.943 50.9185C102.006 50.8785 102.179 50.8225 102.462 50.7344C102.501 50.7184 102.729 50.6384 103.145 50.4784C103.593 50.3023 103.915 50.2143 104.112 50.1983C104.261 50.1823 104.34 50.2303 104.347 50.3424C104.347 50.4384 104.23 50.5344 103.986 50.6304C103.365 50.8705 102.863 51.3106 102.478 51.9427C102.093 52.5828 101.935 53.247 101.983 53.9511C102.038 54.6713 102.297 55.2554 102.753 55.7195C103.208 56.1756 103.735 56.3836 104.332 56.3356C104.897 56.2876 105.361 56.0236 105.715 55.5355C105.895 55.2874 106.131 54.5833 106.406 53.439C106.697 52.2548 107.058 51.4066 107.482 50.8865C107.915 50.3664 108.496 50.0783 109.242 50.0223C110.075 49.9583 110.767 50.2143 111.34 50.7985C111.914 51.3826 112.236 52.1667 112.314 53.159L112.322 53.1189Z" fill="black"></path>
    <path d="M102.988 86.4861L101.472 88.8707C101.267 89.1987 101.165 89.4148 101.165 89.5268C101.165 89.6388 101.275 89.8549 101.48 90.1829L102.155 91.2392C102.47 91.7193 102.729 92.0313 102.941 92.1674C103.145 92.2954 103.326 92.3434 103.483 92.3034C103.64 92.2634 103.844 92.1033 104.104 91.8473C104.214 91.7353 104.308 91.6952 104.387 91.7433C104.465 91.7833 104.457 91.8713 104.379 91.9993C104.347 92.0473 104.3 92.1193 104.229 92.2154L103.797 92.8235C103.656 93.0315 103.499 93.2716 103.318 93.5436C103.24 93.6717 103.177 93.7757 103.137 93.8477C103.02 94.0878 102.949 94.2158 102.933 94.2398C102.862 94.3598 102.784 94.3918 102.705 94.3358C102.635 94.2878 102.611 94.2238 102.635 94.1278L102.721 93.8397C102.752 93.7357 102.721 93.5516 102.635 93.2796C102.548 93.0075 102.43 92.7595 102.297 92.5274L101.99 92.0553L96.7654 83.8136C96.6711 83.6696 96.6476 83.5655 96.6947 83.4935C96.734 83.4215 96.844 83.4055 96.9933 83.4455L105.911 85.3019L106.351 85.3899C107.003 85.5259 107.435 85.574 107.647 85.5179C107.859 85.4699 108.134 85.2539 108.472 84.8858C108.582 84.7658 108.676 84.7338 108.755 84.7898C108.826 84.8458 108.826 84.9258 108.747 85.0458C108.724 85.0859 108.661 85.1659 108.574 85.2859C108.409 85.5019 108.134 85.894 107.773 86.4781C107.38 87.0863 107.152 87.4784 107.082 87.6464C107.042 87.7504 107.003 87.8224 106.979 87.8704C106.909 87.9825 106.83 88.0145 106.744 87.9585C106.681 87.9185 106.673 87.8304 106.72 87.7104L106.807 87.4784C106.909 87.2303 106.83 87.0223 106.579 86.8622C106.351 86.7102 105.809 86.5422 104.96 86.3661L103.899 86.1341C103.601 86.0701 103.42 86.0541 103.349 86.0861C103.279 86.1101 103.169 86.2541 103.012 86.4941L102.988 86.4861ZM101.998 85.726L98.7846 85.0698L98.6118 85.0298C98.4389 84.9898 98.3368 85.0058 98.2897 85.0618C98.2661 85.0858 98.2897 85.1499 98.3447 85.2459L100.325 88.3745C100.411 88.5106 100.474 88.5906 100.513 88.6146C100.623 88.6866 100.741 88.6226 100.875 88.4226L100.992 88.2465L102.257 86.2621C102.399 86.0381 102.415 85.902 102.305 85.822C102.273 85.806 102.218 85.782 102.14 85.758L101.998 85.718V85.726Z" fill="black"></path>
    <path d="M93.1042 90.791L94.5342 92.0153L94.6756 92.1433L94.7149 92.2153C94.7228 92.2633 94.7149 92.3113 94.6835 92.3513C94.6442 92.3994 94.5028 92.3834 94.2592 92.3033C92.4207 91.7032 90.8886 91.9673 89.6786 93.0955C88.7122 93.9997 88.233 95.0079 88.2172 96.1361C88.2094 97.2564 88.673 98.3446 89.6079 99.3848C90.6922 100.585 91.8864 101.281 93.1985 101.465C94.5028 101.649 95.642 101.289 96.6163 100.377C97.182 99.8489 97.6062 99.1688 97.8734 98.3526C98.1405 97.5284 98.1877 96.8003 97.9991 96.1601C97.9127 95.8641 97.8891 95.688 97.9441 95.64C97.9991 95.584 98.0619 95.592 98.1327 95.664L98.1876 95.7361L98.2819 95.8801L98.7848 96.7203L98.8555 96.8483C98.9341 96.9603 98.934 97.1444 98.8712 97.4084C98.5098 98.7927 97.8027 99.977 96.7498 100.953C95.532 102.089 94.2199 102.642 92.8135 102.602C91.4071 102.561 90.1658 101.937 89.0815 100.745C88.0051 99.5449 87.4866 98.1846 87.5416 96.6723C87.5966 95.1599 88.2094 93.8557 89.3722 92.7674C90.1736 92.0233 91.0693 91.5192 92.0671 91.2631L92.405 91.1751L92.5307 91.1351L92.6643 91.0791C92.6643 91.0791 92.6957 91.0151 92.7035 90.951C92.7271 90.815 92.7585 90.727 92.79 90.703C92.845 90.647 92.955 90.679 93.1042 90.807V90.791Z" fill="black"></path>
    <path d="M83.2517 100.673L86.253 105.698C86.6301 106.33 86.913 106.714 87.1094 106.874C87.3373 107.05 87.5415 107.138 87.7301 107.154C87.9108 107.17 88.1622 107.106 88.4608 106.978C88.6965 106.874 88.8379 106.858 88.8929 106.938C88.9558 107.042 88.9165 107.138 88.7829 107.218C88.7122 107.258 88.6258 107.306 88.5158 107.354C88.3665 107.419 88.1308 107.547 87.8008 107.755L86.8344 108.331L86.088 108.859C85.9702 108.955 85.868 109.027 85.7816 109.075C85.6637 109.147 85.5773 109.139 85.5223 109.043C85.4752 108.963 85.5145 108.867 85.6323 108.763C85.9309 108.499 86.0723 108.251 86.0644 108.011C86.0644 107.779 85.8837 107.37 85.5459 106.802L82.1124 101.057C81.7824 100.497 81.4917 100.161 81.256 100.049C81.0203 99.9369 80.6746 99.9689 80.2268 100.153C80.0775 100.209 79.9754 100.201 79.9204 100.129C79.8575 100.033 79.8968 99.9529 80.0225 99.8649C80.0539 99.8409 80.1011 99.8249 80.1482 99.8009C80.4939 99.6489 80.926 99.4008 81.4603 99.0727C81.7824 98.8727 82.0574 98.6887 82.2853 98.5286L82.7017 98.2166C82.7803 98.1606 82.8353 98.1205 82.8588 98.1045C82.9767 98.0325 83.0631 98.0405 83.1103 98.1205C83.1574 98.2006 83.1338 98.2886 83.0474 98.4006L82.7881 98.7447C82.5367 99.0727 82.6938 99.7049 83.2595 100.657L83.2517 100.673Z" fill="black"></path>
    <path d="M76.1097 107.723L79.1975 109.947L79.5589 110.211C80.5096 110.891 81.2481 111.155 81.7745 110.987L82.0102 110.915C82.0967 110.883 82.1517 110.907 82.1674 110.979C82.1909 111.051 82.1124 111.163 81.9238 111.307C81.7352 111.451 81.5074 111.563 81.2481 111.667C80.816 111.835 80.3839 111.859 79.9517 111.747C79.5196 111.635 79.0246 111.371 78.4668 110.963L75.6462 108.851L75.489 108.731C75.3005 108.571 75.0726 108.547 74.8133 108.643L73.8548 109.003L73.7055 109.091C73.6584 109.147 73.6584 109.235 73.7055 109.363L74.5462 111.659L74.664 111.948C74.8212 112.372 74.9469 112.652 75.0412 112.796C75.1433 112.932 75.2847 113.036 75.489 113.1C75.7562 113.188 76.1176 113.172 76.5654 113.052C76.7461 113.004 76.8561 113.028 76.8954 113.116C76.9425 113.212 76.8797 113.284 76.7147 113.348C76.644 113.372 76.4947 113.412 76.2747 113.484C76.0704 113.54 75.7562 113.644 75.3476 113.804L74.6483 114.06L74.2712 114.212C74.1062 114.276 73.9176 114.364 73.6898 114.468C73.5091 114.564 73.3834 114.62 73.3127 114.644C73.1948 114.692 73.1162 114.66 73.077 114.564C73.0534 114.492 73.0927 114.42 73.2105 114.348C73.5641 114.132 73.7526 113.852 73.7762 113.524C73.7919 113.196 73.6505 112.612 73.3441 111.787L71.4034 106.498L71.1127 105.738C70.8299 104.97 70.4135 104.642 69.8556 104.754L69.4942 104.834C69.3292 104.858 69.2349 104.834 69.2035 104.746C69.1721 104.65 69.2271 104.57 69.3921 104.506C69.4314 104.49 69.6042 104.434 69.9106 104.346C70.0913 104.298 70.3113 104.218 70.5627 104.13C70.7827 104.05 71.1599 103.89 71.6784 103.658C72.0556 103.49 72.3934 103.354 72.6841 103.242C73.7919 102.818 74.7033 102.714 75.4183 102.922C76.1333 103.13 76.644 103.65 76.9504 104.49C77.359 105.586 77.0761 106.666 76.1097 107.723ZM73.9334 108.371L74.7505 108.067C75.379 107.827 75.8111 107.459 76.039 106.97C76.2668 106.482 76.2747 105.93 76.039 105.322C75.7797 104.61 75.3162 104.122 74.664 103.85C74.0041 103.578 73.2969 103.586 72.5348 103.874C72.252 103.986 72.0713 104.106 72.0006 104.242C71.9298 104.378 71.9377 104.57 72.0241 104.818L72.1184 105.058L73.2184 108.043C73.3048 108.275 73.3912 108.411 73.4698 108.443C73.5562 108.483 73.7055 108.459 73.9255 108.371H73.9334Z" fill="black"></path>
    <path d="M61.5038 107.122L61.8888 110.259C61.9202 110.499 61.9595 110.643 62.0066 110.683C62.0538 110.723 62.1952 110.731 62.4074 110.707L63.5859 110.555C64.1202 110.483 64.5366 110.403 64.843 110.299C65.1101 110.211 65.283 110.107 65.3537 110.003C65.4244 109.899 65.4715 109.675 65.4951 109.323C65.503 109.187 65.5658 109.123 65.668 109.115C65.7622 109.115 65.8251 109.171 65.8408 109.307C65.8408 109.347 65.8408 109.403 65.8487 109.475C65.8644 109.987 65.8958 110.443 65.943 110.859C65.9822 111.179 66.0372 111.483 66.1001 111.787C66.1237 111.891 66.1315 111.963 66.1394 112.011C66.1551 112.139 66.1158 112.211 66.0137 112.227C65.9037 112.243 65.833 112.195 65.8015 112.083L65.7308 111.867C65.6287 111.531 65.4794 111.307 65.283 111.203C65.0866 111.099 64.7644 111.083 64.3323 111.131L62.6509 111.347C62.3995 111.379 62.2345 111.427 62.1638 111.491C62.0852 111.555 62.0538 111.659 62.0774 111.819L62.1166 112.075L62.4702 114.948C62.5252 115.388 62.6352 115.652 62.8002 115.748C62.973 115.836 63.3659 115.844 64.0023 115.764C65.998 115.508 67.2236 114.884 67.6872 113.892C67.7343 113.796 67.7815 113.74 67.8443 113.732C67.9386 113.716 67.9936 113.772 68.0093 113.916C68.0486 114.244 67.9072 114.668 67.6008 115.18C67.2236 115.796 66.6894 116.14 66.0137 116.228C65.8644 116.244 65.668 116.26 65.4087 116.276C64.4266 116.308 63.6173 116.364 62.9809 116.444C62.0931 116.556 61.4645 116.668 61.111 116.78C60.9224 116.844 60.7888 116.876 60.7181 116.884C60.5531 116.9 60.4667 116.86 60.4588 116.748C60.451 116.66 60.506 116.596 60.6317 116.54L60.9067 116.42C61.2602 116.268 61.3938 115.884 61.3152 115.26L61.2602 114.756L60.451 108.163C60.3567 107.418 60.2153 106.93 60.0189 106.69C59.8303 106.45 59.5003 106.362 59.0367 106.418C58.8875 106.442 58.8089 106.402 58.801 106.306C58.7853 106.17 58.8953 106.082 59.1232 106.058C59.2489 106.042 59.4217 106.034 59.6417 106.034C60.3803 106.034 61.2602 105.954 62.2816 105.826C62.9023 105.746 63.4523 105.666 63.9237 105.586L65.0001 105.386C65.2987 105.338 65.4794 105.306 65.5501 105.282C65.6837 105.242 65.7858 105.218 65.8487 105.21C66.0137 105.186 66.1079 105.25 66.1315 105.402C66.1315 105.45 66.1315 105.506 66.1315 105.586C66.1315 105.658 66.1315 105.866 66.1472 106.21L66.1708 106.666C66.1787 106.97 66.1708 107.162 66.1629 107.234C66.1472 107.314 66.0922 107.354 66.0058 107.378C65.9115 107.394 65.8487 107.322 65.833 107.162L65.8094 106.962C65.7937 106.794 65.7387 106.642 65.6601 106.498C65.5344 106.282 65.3223 106.146 65.0158 106.106C64.7094 106.066 64.1673 106.098 63.3738 106.202L62.1716 106.354C61.8574 106.394 61.6609 106.458 61.5745 106.554C61.4881 106.65 61.4645 106.834 61.5038 107.106V107.122Z" fill="black"></path>
    <path d="M53.0419 108.891C52.4997 109.603 52.1462 110.091 51.9576 110.371L51.0776 111.755L50.072 113.276C50.017 113.364 49.7341 113.82 49.2313 114.636C49.0191 114.972 48.8463 115.252 48.697 115.468C48.6106 115.596 48.5556 115.684 48.5163 115.74C48.3827 115.972 48.257 116.076 48.147 116.06C48.0292 116.044 47.927 115.9 47.8563 115.628C47.8406 115.58 47.7935 115.428 47.6992 115.172L47.5892 114.828L45.6014 108.123L44.8943 111.947C44.8393 112.26 44.7371 112.892 44.6114 113.844C44.4857 114.756 44.7293 115.3 45.35 115.492C45.6564 115.588 45.7978 115.684 45.7821 115.788C45.7664 115.908 45.6878 115.956 45.5385 115.932C45.4442 115.916 45.3421 115.9 45.2557 115.876C44.6978 115.74 44.2579 115.652 43.9514 115.604C43.5822 115.556 43.2207 115.524 42.8672 115.524C42.765 115.524 42.6865 115.524 42.6315 115.524C42.4822 115.5 42.4115 115.436 42.4272 115.324C42.4351 115.236 42.5058 115.188 42.6393 115.188C43.0243 115.148 43.3072 115.012 43.4879 114.772C43.6764 114.532 43.8257 114.092 43.9436 113.46L44.36 111.219C44.6586 109.595 44.8393 108.571 44.9021 108.139C45.0278 107.218 45.0043 106.514 44.8314 106.042C44.6507 105.562 44.2971 105.234 43.755 105.05C43.6057 105.002 43.535 104.93 43.5507 104.834C43.5664 104.722 43.6372 104.682 43.7629 104.698C43.81 104.698 43.8886 104.722 44.0143 104.746C44.085 104.762 44.2579 104.794 44.5328 104.834C44.9493 104.89 45.2164 104.93 45.3264 104.93C45.4442 104.93 45.5385 104.93 45.6092 104.946C45.8292 104.97 45.9864 105.162 46.0885 105.514L46.1514 105.706L48.3513 113.14L48.6341 113.996C48.6734 114.14 48.7049 114.212 48.7284 114.22C48.7599 114.22 48.7991 114.18 48.862 114.092L48.9877 113.892L49.0741 113.748L53.7333 106.442C53.8354 106.29 53.9061 106.194 53.9454 106.162C53.9847 106.13 54.0633 106.122 54.1575 106.138C54.1968 106.138 54.3068 106.17 54.4875 106.21C54.5504 106.218 54.6368 106.234 54.7389 106.25C55.0532 106.298 55.3125 106.322 55.5089 106.33C55.6032 106.338 55.6739 106.346 55.7289 106.346C55.8311 106.346 55.8782 106.41 55.8625 106.522C55.8468 106.618 55.7918 106.674 55.6818 106.682L55.3439 106.722C55.0768 106.746 54.8725 106.882 54.7311 107.13C54.5897 107.379 54.4797 107.795 54.4011 108.395L54.189 110.275L53.749 114.516L53.6547 115.5C53.5997 115.892 53.6311 116.188 53.749 116.38C53.8668 116.572 54.1104 116.724 54.4797 116.829C54.7468 116.909 54.8725 116.997 54.8568 117.085C54.8411 117.181 54.7468 117.221 54.5582 117.197C54.5032 117.189 54.4404 117.181 54.3697 117.157L53.7804 117.013C53.584 116.965 53.3719 116.925 53.144 116.893C52.9869 116.869 52.7354 116.853 52.3976 116.821C51.8633 116.773 51.5569 116.749 51.4783 116.741C51.3291 116.716 51.2583 116.66 51.2741 116.572C51.2819 116.492 51.3605 116.444 51.4862 116.428C51.8005 116.388 52.0126 116.284 52.1462 116.108C52.2719 115.932 52.3662 115.62 52.4369 115.148L52.5783 113.876L53.0576 108.907L53.0419 108.891Z" fill="black"></path>
    <path d="M35.4659 108.299L32.9203 107.131C32.5746 106.971 32.3468 106.899 32.2368 106.915C32.1268 106.931 31.9303 107.075 31.6475 107.331L30.7125 108.163C30.2883 108.547 30.029 108.851 29.9268 109.083C29.8247 109.307 29.809 109.491 29.8797 109.643C29.9425 109.795 30.1233 109.979 30.414 110.195C30.5397 110.283 30.5868 110.379 30.5554 110.459C30.524 110.539 30.4375 110.555 30.3118 110.491C30.2647 110.467 30.1783 110.427 30.0761 110.379L29.4161 110.051C29.1961 109.939 28.9369 109.819 28.6462 109.683C28.5126 109.619 28.4026 109.579 28.324 109.547C28.0805 109.459 27.939 109.411 27.9155 109.403C27.7898 109.347 27.7505 109.275 27.7898 109.179C27.829 109.099 27.8919 109.067 27.9783 109.075L28.269 109.115C28.3712 109.131 28.5519 109.067 28.8033 108.939C29.0547 108.811 29.2747 108.659 29.4711 108.483L29.8875 108.107L37.1002 101.601C37.2259 101.489 37.328 101.449 37.3987 101.481C37.4773 101.513 37.5087 101.617 37.5009 101.777L37.0373 111.043L37.0216 111.499C36.9823 112.18 37.0059 112.62 37.0845 112.828C37.1709 113.036 37.4145 113.284 37.823 113.564C37.9566 113.66 37.9959 113.748 37.9566 113.836C37.9173 113.916 37.8309 113.924 37.7052 113.86C37.6659 113.844 37.5794 113.796 37.4459 113.724C37.2102 113.588 36.7859 113.38 36.1652 113.092C35.5209 112.796 35.1045 112.62 34.9317 112.572C34.8295 112.548 34.751 112.516 34.7038 112.5C34.586 112.444 34.5388 112.372 34.586 112.276C34.6174 112.204 34.696 112.18 34.8217 112.22L35.0574 112.268C35.3088 112.324 35.4974 112.212 35.6231 111.94C35.7409 111.684 35.8195 111.115 35.8666 110.227L35.9374 109.115C35.9531 108.803 35.9374 108.619 35.9059 108.555C35.8666 108.483 35.7174 108.395 35.4581 108.275L35.4659 108.299ZM36.0552 107.187L36.2045 103.842V103.666C36.2281 103.49 36.2045 103.378 36.1338 103.346C36.1024 103.33 36.0474 103.346 35.9609 103.434L33.2189 105.898C33.101 106.002 33.0303 106.082 33.0146 106.122C32.9596 106.242 33.0382 106.354 33.2582 106.458L33.4467 106.554L35.5681 107.523C35.8038 107.635 35.9452 107.627 36.0002 107.507C36.0159 107.475 36.0238 107.411 36.0395 107.323L36.0631 107.179L36.0552 107.187Z" fill="black"></path>
    <path d="M22.7694 93.3516L20.703 95.6241L20.6087 95.7361L20.4751 95.8882C20.3966 96.0082 20.4594 96.1602 20.6559 96.3442L21.1273 96.8083L21.3158 96.9764L21.9915 97.5925C22.3372 97.9206 22.6358 98.1046 22.8872 98.1446C23.1386 98.1846 23.4058 98.1046 23.6808 97.8806C23.7829 97.8006 23.8615 97.7926 23.9165 97.8566C23.9872 97.9206 23.9715 98.0166 23.8536 98.1206L23.2958 98.6567C23.2251 98.7288 23.1151 98.8408 22.9736 99.0008C22.5651 99.4489 22.3137 99.745 22.2194 99.873C22.1644 99.953 22.1172 100.009 22.0858 100.041C21.9994 100.137 21.9208 100.145 21.858 100.081C21.7872 100.017 21.8187 99.865 21.9444 99.6409C22.0858 99.3929 22.1644 99.2089 22.1722 99.0888C22.188 98.9688 22.1487 98.8328 22.0544 98.6807C21.858 98.3767 21.5201 98.0006 21.033 97.5365C20.5851 97.1124 20.2866 96.8484 20.1373 96.7443C19.988 96.6403 19.8702 96.6163 19.7916 96.6643C19.7052 96.7203 19.5952 96.8244 19.4459 96.9844L17.4974 99.1128C17.2224 99.4169 17.081 99.737 17.0731 100.065C17.0731 100.393 17.1988 100.689 17.466 100.945C17.5995 101.065 17.6231 101.169 17.5602 101.241C17.4895 101.337 17.3952 101.329 17.2695 101.217C17.1831 101.137 17.081 101.017 16.9474 100.865C16.8374 100.737 16.6567 100.553 16.4131 100.321L16.0281 99.945L15.5882 99.5369C15.4939 99.4489 15.3603 99.3369 15.1796 99.2009C15.0382 99.0808 14.936 99.0008 14.8732 98.9448C14.7553 98.8488 14.7318 98.7608 14.8025 98.6887C14.8575 98.6327 14.9518 98.6407 15.0932 98.7288C15.3839 98.8968 15.6353 98.9528 15.8632 98.8808C16.091 98.8088 16.3738 98.5847 16.7196 98.2086L21.4415 93.0236C21.7794 92.6635 21.9758 92.3274 22.0308 92.0153C22.078 91.8153 22.0701 91.6473 22.0308 91.5112C21.9837 91.3832 21.858 91.1992 21.6537 90.9671C21.5751 90.8791 21.5515 90.7991 21.6065 90.7351C21.693 90.631 21.8108 90.647 21.968 90.7991C22.0151 90.8471 22.1251 90.9671 22.2901 91.1592C22.5887 91.5112 23.1465 92.0633 23.94 92.8155C24.6472 93.4876 25.1107 93.9117 25.3229 94.0958L26.14 94.7999C26.4935 95.104 26.7292 95.296 26.8392 95.368C26.9257 95.4241 26.9885 95.4721 27.0435 95.5201C27.1299 95.6001 27.1299 95.6801 27.0435 95.7681C26.9964 95.8081 26.9335 95.8642 26.8392 95.9282C26.5485 96.1202 26.2107 96.4243 25.8336 96.8404C25.6686 97.0164 25.5428 97.0564 25.4407 96.9684C25.3857 96.9124 25.3936 96.8324 25.4721 96.7363C25.5743 96.6083 25.6607 96.4723 25.7393 96.3202C25.865 96.0802 25.92 95.8962 25.8964 95.7681C25.8728 95.6401 25.7471 95.4481 25.5193 95.192L24.9221 94.4959C24.7257 94.2798 24.4743 94.0158 24.1522 93.7117C23.7358 93.3116 23.4451 93.0956 23.2958 93.0556C23.1465 93.0155 22.9658 93.1116 22.7536 93.3356L22.7694 93.3516Z" fill="black"></path>
    <path d="M16.9473 84.0217C17.8273 85.3899 18.1415 86.7902 17.8744 88.2145C17.6073 89.6468 16.8294 90.7911 15.533 91.6553C14.1581 92.5755 12.7517 92.8795 11.306 92.5915C9.86036 92.3034 8.68969 91.4632 7.80186 90.0869C6.89046 88.6786 6.57618 87.2543 6.85903 85.822C7.14188 84.3897 7.959 83.2215 9.31824 82.3093C9.90751 81.9092 10.5675 81.6371 11.2982 81.4771C12.0289 81.3171 12.7124 81.3011 13.3488 81.4291C14.0245 81.5651 14.6845 81.8612 15.3366 82.3333C15.9809 82.7974 16.5152 83.3655 16.9394 84.0217H16.9473ZM16.2559 83.8776C15.5959 82.8694 14.7474 82.2853 13.6945 82.1412C12.6338 81.9972 11.5417 82.3013 10.4103 83.0614C9.11396 83.9336 8.26541 85.0379 7.86471 86.3981C7.46401 87.7504 7.62115 88.9827 8.33613 90.0949C8.98825 91.1031 9.89179 91.6953 11.0389 91.8713C12.186 92.0473 13.3253 91.7593 14.4409 91.0151C15.7216 90.1589 16.5309 89.0467 16.8766 87.6864C17.2223 86.3261 17.018 85.0539 16.2559 83.8776Z" fill="black"></path>
    <path d="M40.8087 29.402C39.7952 34.6591 40.8323 40.5964 42.4272 45.5014C45.3107 52.7989 50.1348 59.0323 56.4754 58.9762H56.5696C57.0018 54.9034 59.571 53.239 60.8909 50.1824C61.8652 48.0459 62.9573 46.6616 64.4108 45.0933C70.2092 38.804 68.2057 40.8204 70.7592 39.6762C71.8199 37.7878 71.5763 31.7065 71.3327 29.7381C69.2821 12.8625 44.2343 11.6062 40.8087 29.41V29.402Z" fill="url(#paint0_linear_16728_1660)"></path>
    <path d="M80.1246 35.4113C74.8841 35.8674 69.565 38.5159 65.3772 41.4286C59.2881 46.2696 54.739 52.7109 56.5382 58.8963L56.5618 58.9923C60.9538 58.1201 63.688 59.5124 66.9329 59.9605C69.2193 60.3286 68.52 60.1045 70.4057 61.0967C77.9326 65.0496 77.6576 65.0656 79.4489 67.25C81.531 67.5301 86.8187 66.2658 88.6179 65.4816C103.978 58.8242 97.8812 33.851 80.1246 35.4033V35.4113Z" fill="url(#paint1_linear_16728_1660)"></path>
    <path d="M86.1351 73.9795C84.0058 69.0745 79.8103 64.8256 75.7404 61.737C69.2663 57.448 61.8101 55.1596 56.6481 58.9044L56.5696 58.9604C58.7224 63.9294 57.096 64.1935 57.7324 67.4582C58.1331 69.7787 58.4631 70.8749 58.1567 73.0193C56.9389 81.5491 58.0702 83.0215 56.6246 85.462C57.756 88.5586 60.0266 90.7911 61.3309 92.2634C72.5112 104.882 93.3398 90.5671 86.1194 73.9795H86.1351Z" fill="url(#paint2_linear_16728_1660)"></path>
    <path d="M52.264 92.3114C56.1217 88.6546 58.6988 83.2375 60.2388 78.3164C62.1166 70.6828 61.8101 62.7531 56.656 59.0003L56.5774 58.9443C54.6918 62.185 52.7747 62.241 49.9462 63.9214C47.9191 65.0736 47.2906 66.762 45.2007 67.1621C36.8802 68.7704 34.3503 68.3383 31.6082 67.7462C29.1962 70.2667 28.2376 72.5152 27.2948 74.2596C19.2179 89.1427 39.2058 104.666 52.264 92.3114Z" fill="url(#paint3_linear_16728_1660)"></path>
    <path d="M24.3407 66.2338C29.0234 68.6743 34.9082 69.2984 39.9837 69.0904C47.6678 68.2742 54.8804 65.2736 56.5775 59.0483L56.6011 58.9603C55.784 59.0963 52.2091 58.7042 49.247 56.0476C47.4949 54.5033 45.6878 52.0468 44.635 50.1744C41.948 45.4214 41.0208 40.4764 40.6437 37.6518C37.8859 36.0194 33.8946 35.9074 32.0483 35.7314C15.4309 34.099 8.47759 57.9761 24.3407 66.2418V66.2338Z" fill="url(#paint4_linear_16728_1660)"></path>
    <path d="M8.18688 69.1143C8.18688 70.6347 6.97692 71.8749 5.47625 71.8749C3.97559 71.8749 2.76562 70.6427 2.76562 69.1143C2.76562 67.586 3.98344 66.3538 5.47625 66.3538C6.96906 66.3538 8.18688 67.586 8.18688 69.1143Z" fill="#6CADDF"></path>
    <path d="M110.327 69.1143C110.327 70.6347 109.117 71.8749 107.616 71.8749C106.115 71.8749 104.905 70.6427 104.905 69.1143C104.905 67.586 106.123 66.3538 107.616 66.3538C109.109 66.3538 110.327 67.586 110.327 69.1143Z" fill="#6CADDF"></path>
    <path d="M99.9398 81.9412C98.9891 81.4211 98.6198 80.3248 99.1462 79.3406C99.6569 78.3724 100.765 78.0523 101.715 78.5725C102.666 79.0926 103.012 80.2128 102.509 81.173C101.99 82.1572 100.898 82.4613 99.9476 81.9412H99.9398ZM101.543 78.9005C100.757 78.4684 99.8533 78.6925 99.4291 79.5007C98.9969 80.3088 99.3191 81.205 100.105 81.6291C100.89 82.0532 101.794 81.8371 102.226 81.021C102.65 80.2208 102.328 79.3246 101.543 78.9005ZM99.6019 80.3088L99.8612 79.8207C99.9319 79.6767 100.01 79.5887 100.081 79.5247C100.27 79.3406 100.505 79.3246 100.702 79.4366C100.969 79.5807 101.032 79.8447 100.953 80.1328C101.11 80.0608 101.511 80.0528 102.061 80.0448L101.88 80.3808C101.299 80.3808 100.945 80.3888 100.867 80.4689L100.804 80.5889L101.558 80.997L101.409 81.285L99.6098 80.3008L99.6019 80.3088ZM100.639 80.3248C100.757 80.1008 100.773 79.8767 100.545 79.7567C100.427 79.6927 100.309 79.7007 100.223 79.7807C100.16 79.8287 100.113 79.9007 100.058 80.0128L99.9948 80.1408L100.576 80.4609L100.647 80.3248H100.639Z" fill="black"></path>
  </g>
  <defs>
    <linearGradient id="paint0_linear_16728_1660" x1="71.537" y1="37.7638" x2="40.408" y2="37.7638" gradientUnits="userSpaceOnUse">
      <stop stop-color="white"></stop>
      <stop offset="1" stop-color="#6CADDF"></stop>
    </linearGradient>
    <linearGradient id="paint1_linear_16728_1660" x1="76.754" y1="67.298" x2="76.754" y2="35.3393" gradientUnits="userSpaceOnUse">
      <stop stop-color="white"></stop>
      <stop offset="1" stop-color="#EF4123"></stop>
    </linearGradient>
    <linearGradient id="paint2_linear_16728_1660" x1="55.2496" y1="81.5811" x2="85.0897" y2="70.9132" gradientUnits="userSpaceOnUse">
      <stop stop-color="white"></stop>
      <stop offset="1" stop-color="#49A942"></stop>
    </linearGradient>
    <linearGradient id="paint3_linear_16728_1660" x1="28.3633" y1="70.7148" x2="59.0791" y2="81.6926" gradientUnits="userSpaceOnUse">
      <stop stop-color="white"></stop>
      <stop offset="1" stop-color="#9B5BA5"></stop>
    </linearGradient>
    <linearGradient id="paint4_linear_16728_1660" x1="36.0082" y1="35.6433" x2="36.0082" y2="69.1224" gradientUnits="userSpaceOnUse">
      <stop stop-color="white"></stop>
      <stop offset="1" stop-color="#FFEA53"></stop>
    </linearGradient>
    <clipPath id="clip0_16728_1660">
      <rect width="366.666" height="116.769" fill="white" transform="translate(0 0.419922)"></rect>
    </clipPath>
  </defs>
</svg>
